<svg xmlns="http://www.w3.org/2000/svg" aria-hidden="true" style="position:absolute;width:0;height:0;overflow:hidden"><defs>

<symbol id="icon-burger" viewBox="0 0 48 32"><path stroke-linecap="round" stroke-width="4.571" d="M4.362 2.286h41.143M4.362 16h41.143M4.362 29.714h41.143"/></symbol>



<symbol id="icon-step-3" viewBox="0 0 33 32">
<path fill="none" stroke="#0b0b0c" style="stroke: var(--color1, #0b0b0c)" stroke-linejoin="miter" stroke-linecap="butt" stroke-miterlimit="4" stroke-width="1.5238" d="M31.619 16c0 8.416-6.822 15.238-15.238 15.238s-15.238-6.822-15.238-15.238c0-8.416 6.822-15.238 15.238-15.238s15.238 6.822 15.238 15.238z"></path>
<path d="M21.258 11.074c-0.098-0.064-0.207-0.107-0.322-0.128s-0.233-0.020-0.347 0.005c-0.114 0.024-0.222 0.071-0.319 0.137s-0.178 0.151-0.242 0.249l-4.981 7.677-2.429-2.246c-0.086-0.079-0.186-0.141-0.296-0.181s-0.226-0.059-0.343-0.054c-0.236 0.009-0.458 0.112-0.618 0.285s-0.245 0.403-0.236 0.638c0.009 0.236 0.112 0.458 0.285 0.618l3.189 2.949c0 0 0.092 0.079 0.134 0.106 0.098 0.064 0.207 0.107 0.322 0.128s0.233 0.020 0.347-0.005c0.114-0.024 0.222-0.071 0.319-0.137s0.178-0.151 0.242-0.249l5.555-8.562c0.064-0.098 0.107-0.207 0.128-0.322s0.020-0.233-0.005-0.347c-0.024-0.114-0.071-0.222-0.137-0.319s-0.151-0.178-0.249-0.242z"></path>
</symbol>


<symbol id="icon-step-2" viewBox="0 0 33 32">
<path fill="none" stroke="#0b0b0c" style="stroke: var(--color1, #0b0b0c)" stroke-linejoin="miter" stroke-linecap="butt" stroke-miterlimit="4" stroke-width="1.5238" d="M31.619 16c0 8.416-6.822 15.238-15.238 15.238s-15.238-6.822-15.238-15.238c0-8.416 6.822-15.238 15.238-15.238s15.238 6.822 15.238 15.238z"></path>
<path d="M13.257 19.81v-1.243l3.084-2.462c0.52-0.414 0.89-0.792 1.109-1.134s0.329-0.687 0.329-1.036c0-0.382-0.142-0.691-0.427-0.926-0.276-0.236-0.61-0.354-1-0.354-0.756 0-1.463 0.394-2.121 1.182l-0.987-0.914c0.829-1.089 1.881-1.634 3.157-1.634 0.837 0 1.532 0.244 2.085 0.731 0.561 0.488 0.841 1.113 0.841 1.877 0 0.561-0.15 1.085-0.451 1.573-0.293 0.479-0.792 0.991-1.499 1.536l-1.755 1.414h3.791v1.39h-6.156z"></path>
</symbol>

<symbol id="icon-step-1" viewBox="0 0 33 32">
<path fill="#e52f42" style="fill: var(--color2, #e52f42)" d="M32.381 16c0 8.837-7.163 16-16 16s-16-7.163-16-16c0-8.837 7.163-16 16-16s16 7.163 16 16z"></path>
<path fill="#fff" style="fill: var(--color3, #fff)" d="M15.5 19.81v-6.619l-1.438 0.914-0.622-1.073 2.353-1.597h1.219v8.375h-1.512z"></path>
</symbol>

<symbol id="icon-house-1" viewBox="0 0 35 32"><path fill="#e1e4eb" d="m19.115 31.08 13.202-7.606v-9.609l-6.601-1.24-6.601 8.847v9.609z" style="fill:var(--color4, #e1e4eb)"/><path fill="#c3c9d6" d="M19.116 31.08 1.619 20.951v-8.326l17.497 8.847v9.609z" style="fill:var(--color5, #c3c9d6)"/><path fill="#b2202f" d="M18.326 22.598.623 12.823v-.908L8.179 1.894l7.689 1.494 17.295 10.236.025.401-7.308-1.372-7.554 9.944z" style="fill:var(--color6, #b2202f)"/><path fill="#e52f42" d="m25.465 11.93-7.266 9.642L.622 11.93 8.176 1.895 25.464 11.93z" style="fill:var(--color2, #e52f42)"/><path fill="#333" d="m10.306 25.98-6.342-3.672v-4.881l6.342 3.584v4.969zM12.513 22.192l2.333 1.214v5.203l-2.333-1.345v-5.071z" style="fill:var(--color7, #333)"/><path fill="#aeb1b9" d="M25.578 19.039v3.61l-2.18 1.237v-3.55l2.18-1.297zM28.738 20.856l-2.152 1.221v-3.638l2.146-1.276.006 3.693z" style="fill:var(--color8, #aeb1b9)"/></symbol>

<symbol id="icon-house-2" viewBox="0 0 38 32"><path fill="#c3c9d6" d="m28.519 20.552-10.418-6.035v-8.92l10.418 6.035v8.92z" style="fill:var(--color5, #c3c9d6)"/><path fill="#e1e4eb" d="m33.559 17.12-5.041 3.433v-8.92l4.967-4.413.074 9.901z" style="fill:var(--color4, #e1e4eb)"/><path fill="#e1e4eb" d="m34.128 18.19-4.368 2.517.042-2.377 4.326-6.464v6.323z" style="fill:var(--color4, #e1e4eb)"/><path fill="#aeb1b9" d="m34.128 11.867-.693-.312-4.321 6.345.688.431 4.326-6.464z" style="fill:var(--color8, #aeb1b9)"/><path fill="#c3c9d6" d="m29.114 17.9.688.431-.042 2.377-.646-.473V17.9z" style="fill:var(--color5, #c3c9d6)"/><path fill="#333" d="M33.485 7.219v-.543L23.104.835 18.1 5.206v.391l10.418 6.035 4.967-4.413z" style="fill:var(--color7, #333)"/><path fill="#333" d="m18.1 5.206 10.418 5.996 4.967-4.526L23.104.835 18.1 5.206zM20.183 7.848v2.893l-.959-.557v-2.89l.959.554zM21.578 8.654v2.897l-.986-.573V8.084l.986.569zM22.974 9.46v2.902l-.986-.573V8.89l.986.569zM24.351 10.257v2.905l-.968-.563V9.696l.968.561zM25.69 11.03v2.91l-.93-.541v-2.906l.93.537zM27.057 11.82v2.914l-.957-.556v-2.911l.957.553zM20.183 11.181v2.892l-.959-.557v-2.889l.959.554zM21.578 11.986v2.899l-.986-.573v-2.895l.986.569zM22.974 12.792v2.903l-.986-.574v-2.898l.986.569zM24.351 13.589v2.906l-.968-.564v-2.902l.968.56zM25.69 14.362v2.91l-.93-.541v-2.905l.93.536zM27.057 15.152v2.915l-.957-.557v-2.911l.957.553z" style="fill:var(--color7, #333)"/><path fill="#e1e4eb" d="m12.165 30 13.562-7.991v-4.71l-6.781 1.357-6.781 6.541v4.802z" style="fill:var(--color4, #e1e4eb)"/><path fill="#c3c9d6" d="M12.165 25.198 1.858 19.355v4.804L12.165 30v-4.802z" style="fill:var(--color5, #c3c9d6)"/><path fill="#333" d="m1.859 19.355 10.307 5.843 6.781-6.541 6.781-1.357v-.443l-10.324-5.828-6.846 1.338-6.698 6.319v.669z" style="fill:var(--color7, #333)"/><path fill="#e52f42" d="m1.859 18.685 10.307 5.908 6.584-6.307-10.193-5.92-6.698 6.319z" style="fill:var(--color2, #e52f42)"/><path fill="#c62233" d="m8.556 12.367 6.846-1.338 10.324 5.828-6.978 1.43-10.193-5.92z" style="fill:var(--color9, #c62233)"/><path fill="#333" d="M12.912 25.439v.453l1.097-.644-.004-.458-1.093.648zM12.958 27.004v.453l1.098-.644-.005-.458-1.093.648zM14.298 26.182v.452l1.097-.644-.004-.458-1.093.649zM14.288 24.635v.452l1.098-.643-.005-.458-1.093.648zM15.669 23.805v.452l1.098-.643-.005-.458-1.093.648zM17.053 23.004v.452l1.098-.644-.005-.458-1.093.649zM18.437 22.164v.453l1.05-.596-.008-.454-1.043.597zM19.769 21.412v.452l1.05-.595-.007-.455-1.044.598zM21.174 20.563v.452l1.05-.595-.007-.455-1.044.598zM22.551 19.776v.453l1.05-.596-.008-.454-1.043.597zM23.884 19.012v.453l1.05-.595-.008-.455-1.043.597zM19.814 22.871v.453l1.05-.596-.008-.454-1.043.597zM21.126 22.164v.453l1.05-.596-.008-.454-1.043.597zM22.502 21.412v.452l1.05-.595-.007-.455-1.044.598zM23.832 20.61v.453l1.05-.596-.007-.454-1.044.597zM15.665 25.38v.453l1.097-.644-.004-.458-1.093.648zM17.051 24.598v.452l1.097-.643-.004-.458-1.093.648zM18.437 23.749v.452l1.097-.643-.004-.458-1.093.648zM2.657 24.611l1.974 1.119.022-1.366-1.996-1v1.248zM5.482 26.212l1.977 1.121.049-1.512-2.026-1.018v1.409zM8.349 27.837l.848.481v-1.117l-.848-.422v1.058z" style="fill:var(--color7, #333)"/><path fill="#c3c9d6" d="m24.207 22.009 6.279 3.677v1.654l-6.279-4.016v-1.315zM18.653 25.333v1.654l6.306 3.664v-1.754l-6.306-3.564z" style="fill:var(--color5, #c3c9d6)"/><path fill="#e1e4eb" d="m24.96 30.637 4.66-2.659v-1.67l-2.33.311-2.33 2.264v1.754z" style="fill:var(--color4, #e1e4eb)"/><path fill="#c62233" d="m21.025 23.055 2.161-.504 6.434 3.772-2.33.311-6.265-3.579z" style="fill:var(--color9, #c62233)"/><path fill="#e52f42" d="m18.653 25.333 2.372-2.278 6.265 3.579-2.33 2.264-6.306-3.564z" style="fill:var(--color2, #e52f42)"/><path fill="#e1e4eb" d="m30.486 27.341 4.688-2.588v-1.697l-2.345.269-2.343 2.362v1.654z" style="fill:var(--color4, #e1e4eb)"/><path fill="#e52f42" d="m24.207 22.009 6.279 3.677 2.343-2.362-6.292-3.621-2.33 2.306z" style="fill:var(--color2, #e52f42)"/><path fill="#c62233" d="m26.537 19.704 2.25-.349 6.386 3.701-2.345.269-6.292-3.621z" style="fill:var(--color9, #c62233)"/><path fill="#333" d="m26.651 29.673 1.8-1.036v-1.089l-1.8.976v1.149zM32.261 25.262l1.867-1.104v1.172l-1.867 1.03v-1.099z" style="fill:var(--color7, #333)"/></symbol>

<symbol id="icon-step-2-red" viewBox="0 0 33 32">
<path fill="#e52f42" style="fill: var(--color1, #e52f42)" d="M32.381 16c0 8.837-7.163 16-16 16s-16-7.163-16-16c0-8.837 7.163-16 16-16s16 7.163 16 16z"></path>
<path fill="#fff" style="fill: var(--color2, #fff)" d="M13.257 19.81v-1.243l3.084-2.462c0.52-0.414 0.89-0.792 1.109-1.134s0.329-0.687 0.329-1.036c0-0.382-0.142-0.691-0.427-0.926-0.276-0.236-0.61-0.354-1-0.354-0.756 0-1.463 0.394-2.121 1.182l-0.987-0.914c0.829-1.089 1.881-1.634 3.157-1.634 0.837 0 1.532 0.244 2.085 0.731 0.561 0.488 0.841 1.113 0.841 1.877 0 0.561-0.15 1.085-0.451 1.573-0.293 0.479-0.792 0.991-1.499 1.536l-1.755 1.414h3.791v1.39h-6.156z"></path>
</symbol>


<symbol id="icon-finally" viewBox="0 0 32 32">
<path fill="#fff" style="fill: var(--color2, #fff)" d="M29.474 15.158c0 7.441-6.032 13.474-13.474 13.474s-13.474-6.032-13.474-13.474c0-7.441 6.032-13.474 13.474-13.474s13.474 6.032 13.474 13.474z"></path>
<path fill="#19bb81" style="fill: var(--color3, #19bb81)" d="M21.185 9.923c-0.1-0.065-0.211-0.109-0.328-0.131s-0.237-0.020-0.353 0.005c-0.116 0.025-0.227 0.072-0.325 0.14s-0.182 0.153-0.246 0.253l-5.074 7.821-2.474-2.288c-0.087-0.081-0.19-0.143-0.301-0.185s-0.23-0.060-0.349-0.055c-0.24 0.009-0.466 0.114-0.629 0.29s-0.249 0.41-0.24 0.65c0.009 0.24 0.114 0.466 0.29 0.629l3.249 3.004c0 0 0.093 0.080 0.136 0.108 0.1 0.065 0.211 0.109 0.328 0.131s0.237 0.020 0.353-0.005c0.116-0.025 0.227-0.072 0.325-0.14s0.182-0.153 0.246-0.253l5.659-8.722c0.065-0.1 0.109-0.211 0.131-0.328s0.020-0.237-0.005-0.353-0.072-0.227-0.14-0.325c-0.067-0.098-0.153-0.182-0.253-0.246z"></path>
</symbol>

<symbol id="icon-house-12" viewBox="0 0 35 32">
<path fill="#892b35" style="fill: var(--color4, #892b35)" d="M4.819 15.561l8.753 6.446c0.061 0.046 0.129 0.081 0.202 0.107l1.613 0.554c0.086 0.029 0.176 0.043 0.267 0.040 0.457-0.016 0.838-0.418 0.855-0.901l0.098-3.281c1.188-0.041 2.274 0.089 3.264 0.344 3.318 1.441 5.306 4.27 6.26 5.987 0.044 0.079 0.115 0.14 0.202 0.17l1.612 0.554c0.042 0.014 0.087 0.021 0.131 0.019 0.222-0.008 0.405-0.205 0.411-0.44l0.024-0.819c0.168-5.622-3.072-10.286-7.735-11.88l-1.596-0.549c-0.764-0.262-1.556-0.439-2.36-0.527l0.083-2.788c0.006-0.176-0.042-0.35-0.138-0.498-0.091-0.143-0.23-0.251-0.392-0.306l0.004 0.001-1.613-0.554c-0.088-0.030-0.18-0.044-0.273-0.040-0.166 0.006-0.334 0.064-0.483 0.18l-9.158 7.060c-0.062 0.048-0.115 0.105-0.159 0.169-0.215 0.317-0.159 0.743 0.125 0.952z"></path>
<path fill="#e93145" style="fill: var(--color5, #e93145)" d="M16.106 7.755c-0.166 0.006-0.334 0.064-0.483 0.18l-9.158 7.060c-0.062 0.048-0.115 0.105-0.159 0.169-0.215 0.317-0.159 0.743 0.125 0.952l8.753 6.446c0.135 0.1 0.3 0.152 0.469 0.147 0.457-0.016 0.838-0.418 0.855-0.901l0.098-3.281c6.354-0.218 9.784 4.451 11.137 6.885 0.069 0.122 0.195 0.194 0.333 0.189 0.222-0.009 0.405-0.205 0.411-0.44l0.025-0.819c0.213-7.112-5.028-12.691-11.705-12.462l0.098-3.282c0.006-0.176-0.043-0.35-0.138-0.498-0.154-0.235-0.403-0.354-0.661-0.345z"></path>
</symbol>


<symbol id="icon-house-13" viewBox="0 0 35 32">
<path fill="#892b35" style="fill: var(--color4, #892b35)" d="M29.566 16.274l-8.753 6.502c-0.061 0.046-0.129 0.082-0.202 0.108l-1.613 0.559c-0.086 0.030-0.176 0.043-0.267 0.041-0.457-0.016-0.838-0.422-0.855-0.909l-0.098-3.31c-1.188-0.041-2.274 0.090-3.264 0.347-3.318 1.454-5.306 4.307-6.26 6.039-0.043 0.080-0.115 0.141-0.202 0.171l-1.612 0.559c-0.042 0.015-0.087 0.021-0.131 0.020-0.222-0.009-0.405-0.207-0.411-0.443l-0.024-0.826c-0.168-5.671 3.072-10.375 7.735-11.983l1.596-0.554c0.764-0.265 1.556-0.443 2.36-0.531l-0.083-2.812c-0.006-0.178 0.042-0.353 0.138-0.503 0.091-0.144 0.23-0.253 0.392-0.309l-0.005 0.001 1.613-0.559c0.088-0.030 0.18-0.044 0.273-0.041 0.166 0.006 0.334 0.065 0.483 0.181l9.158 7.122c0.062 0.048 0.115 0.106 0.159 0.17 0.216 0.32 0.159 0.75-0.125 0.961z"></path>
<path fill="#e93145" style="fill: var(--color5, #e93145)" d="M18.279 8.4c0.166 0.006 0.334 0.065 0.483 0.181l9.158 7.121c0.062 0.048 0.115 0.106 0.159 0.171 0.215 0.32 0.159 0.75-0.125 0.961l-8.753 6.502c-0.135 0.101-0.3 0.153-0.469 0.148-0.457-0.016-0.838-0.422-0.855-0.909l-0.098-3.31c-6.354-0.22-9.784 4.49-11.137 6.945-0.069 0.123-0.195 0.196-0.332 0.191-0.222-0.009-0.405-0.207-0.411-0.444l-0.025-0.826c-0.213-7.173 5.028-12.801 11.705-12.57l-0.098-3.31c-0.006-0.178 0.042-0.353 0.138-0.503 0.154-0.237 0.403-0.357 0.661-0.348z"></path>
</symbol>


<symbol id="icon-house-14" viewBox="0 0 35 32">
<path fill="#e1e4eb" style="fill: var(--color6, #e1e4eb)" d="M4.055 8.43l-0.91 0.632v10.63l0.91-0.63v-10.632z"></path>
<path fill="#9ea2ac" style="fill: var(--color7, #9ea2ac)" d="M12.793 14.249l-4.978 2.829-4.67-2.719 0.91-0.515v-1.186l2.464-1.399 6.274 2.991z"></path>
<path fill="#b2b6c0" style="fill: var(--color8, #b2b6c0)" d="M9.242 10.042l-4.345-2.472v4.646l4.345 2.454v-4.628z"></path>
<path fill="#e1e4eb" style="fill: var(--color6, #e1e4eb)" d="M9.072 11.579l-2.399-1.362v2.996l2.399 1.364v-2.998z"></path>
<path fill="#5f5656" style="fill: var(--color9, #5f5656)" d="M9.242 11.69l-2.399-1.362v2.996l2.399 1.364v-2.998z"></path>
<path fill="#c3c9d6" style="fill: var(--color10, #c3c9d6)" d="M4.741 12.604h0.244v-1.341h-0.244v1.341z"></path>
<path fill="#c3c9d6" style="fill: var(--color10, #c3c9d6)" d="M4.989 12.604c0 0.035-0.056 0.064-0.126 0.064s-0.124-0.029-0.124-0.064c0-0.035 0.056-0.066 0.124-0.066s0.126 0.038 0.126 0.066z"></path>
<path fill="#c3c9d6" style="fill: var(--color10, #c3c9d6)" d="M4.286 12.854h0.244v-1.341h-0.244v1.341z"></path>
<path fill="#c3c9d6" style="fill: var(--color10, #c3c9d6)" d="M4.534 12.856c0 0.036-0.056 0.066-0.126 0.066s-0.124-0.029-0.124-0.066c0-0.036 0.056-0.066 0.124-0.066s0.126 0.029 0.126 0.066z"></path>
<path fill="#e1e4eb" style="fill: var(--color6, #e1e4eb)" d="M4.055 11.756v0.197l1.298-0.738v-0.199l-1.298 0.74z"></path>
<path fill="#aaadb5" style="fill: var(--color11, #aaadb5)" d="M4.055 11.756l1.298-0.74-0.192-0.109-1.106 0.63v0.219z"></path>
<path fill="#c3c9d6" style="fill: var(--color10, #c3c9d6)" d="M5.725 21.593l9.128 5.191v-10.716l-6.983-3.969v4.902l-4.693-2.668v-4.9l-1.060-0.603v10.712l1.85 1.056 1.757 0.995z"></path>
<path fill="#e1e4eb" style="fill: var(--color6, #e1e4eb)" d="M14.856 26.781l12.047-6.849v-10.712l-12.047 6.849v10.712z"></path>
<path fill="#c62233" style="fill: var(--color12, #c62233)" d="M2.119 8.828l5.962 3.452 11.997-6.836-5.917-3.364-12.042 6.748z"></path>
<path fill="#892b35" style="fill: var(--color4, #892b35)" d="M20.157 4.923l-3.078 1.75-0.104 0.166-0.379 0.107-8.949 5.087 3.52-1.459 12.51-7.113-3.52 1.461z"></path>
<path fill="#e93145" style="fill: var(--color5, #e93145)" d="M11.167 10.575l3.735 5.581 12.509-7.113-3.551-5.685-12.693 7.217z"></path>
<path fill="#892b35" style="fill: var(--color4, #892b35)" d="M14.443 15.896l0.459 0.26-3.735-5.581-3.52 1.459 0.433 0.246 3.087-1.28 3.276 4.896z"></path>
<path fill="#aa1c2b" style="fill: var(--color13, #aa1c2b)" d="M14.16 2.080l2.815 4.759 2.649-1.672-5.464-3.087z"></path>
<path fill="#c3c9d6" style="fill: var(--color10, #c3c9d6)" d="M3.928 13.012h-0.244v1.341h0.244v-1.341z"></path>
<path fill="#c3c9d6" style="fill: var(--color10, #c3c9d6)" d="M3.68 14.355c0 0.035 0.055 0.064 0.124 0.064s0.124-0.029 0.124-0.064c0-0.035-0.055-0.066-0.124-0.066s-0.124 0.029-0.124 0.066z"></path>
<path fill="#c3c9d6" style="fill: var(--color10, #c3c9d6)" d="M4.383 13.264h-0.244v1.341h0.244v-1.341z"></path>
<path fill="#c3c9d6" style="fill: var(--color10, #c3c9d6)" d="M4.135 14.606c0 0.036 0.056 0.066 0.124 0.066s0.124-0.029 0.124-0.066c0-0.036-0.056-0.066-0.124-0.066s-0.124 0.029-0.124 0.066z"></path>
<path fill="#c3c9d6" style="fill: var(--color10, #c3c9d6)" d="M4.834 13.517h-0.244v1.341h0.244v-1.341z"></path>
<path fill="#c3c9d6" style="fill: var(--color10, #c3c9d6)" d="M4.586 14.857c0 0.036 0.056 0.066 0.124 0.066s0.124-0.029 0.124-0.066c0-0.036-0.056-0.066-0.124-0.066s-0.124 0.029-0.124 0.066z"></path>
<path fill="#c3c9d6" style="fill: var(--color10, #c3c9d6)" d="M5.287 13.768h-0.244v1.341h0.244v-1.341z"></path>
<path fill="#c3c9d6" style="fill: var(--color10, #c3c9d6)" d="M5.050 15.109c0 0.036 0.056 0.066 0.124 0.066s0.124-0.029 0.124-0.066c0-0.036-0.056-0.064-0.124-0.064s-0.124 0.029-0.124 0.064z"></path>
<path fill="#c3c9d6" style="fill: var(--color10, #c3c9d6)" d="M5.772 14.061h-0.244v1.341h0.244v-1.341z"></path>
<path fill="#c3c9d6" style="fill: var(--color10, #c3c9d6)" d="M5.648 15.468c0.068 0 0.124-0.029 0.124-0.066s-0.056-0.066-0.124-0.066-0.124 0.029-0.124 0.066c0 0.036 0.056 0.066 0.124 0.066z"></path>
<path fill="#c3c9d6" style="fill: var(--color10, #c3c9d6)" d="M6.227 14.313h-0.244v1.341h0.244v-1.341z"></path>
<path fill="#c3c9d6" style="fill: var(--color10, #c3c9d6)" d="M5.975 15.653c0 0.036 0.056 0.066 0.124 0.066s0.124-0.029 0.124-0.066-0.056-0.064-0.124-0.064c-0.068 0-0.124 0.029-0.124 0.064z"></path>
<path fill="#c3c9d6" style="fill: var(--color10, #c3c9d6)" d="M6.678 14.564h-0.244v1.341h0.244v-1.341z"></path>
<path fill="#c3c9d6" style="fill: var(--color10, #c3c9d6)" d="M6.43 15.907c0 0.036 0.056 0.066 0.124 0.066s0.124-0.029 0.124-0.066c0-0.036-0.056-0.066-0.124-0.066s-0.124 0.029-0.124 0.066z"></path>
<path fill="#c3c9d6" style="fill: var(--color10, #c3c9d6)" d="M7.133 14.817h-0.244v1.341h0.244v-1.341z"></path>
<path fill="#c3c9d6" style="fill: var(--color10, #c3c9d6)" d="M6.885 16.158c0 0.036 0.056 0.066 0.124 0.066s0.124-0.029 0.124-0.066c0-0.036-0.056-0.066-0.124-0.066s-0.124 0.029-0.124 0.066z"></path>
<path fill="#c3c9d6" style="fill: var(--color10, #c3c9d6)" d="M7.612 15.109h-0.244v1.341h0.244v-1.341z"></path>
<path fill="#c3c9d6" style="fill: var(--color10, #c3c9d6)" d="M7.364 16.451c0 0.036 0.056 0.066 0.124 0.066s0.124-0.029 0.124-0.066c0-0.036-0.056-0.066-0.124-0.066s-0.124 0.029-0.124 0.066z"></path>
<path fill="#c3c9d6" style="fill: var(--color10, #c3c9d6)" d="M7.871 15.358l-4.554-2.592v0.199l4.554 2.592v-0.199z"></path>
<path fill="#9ea5b6" style="fill: var(--color14, #9ea5b6)" d="M7.871 15.142l-4.363-2.484-0.191 0.109 4.554 2.592v-0.217z"></path>
<path fill="#aeb1b9" style="fill: var(--color15, #aeb1b9)" d="M25.001 11.444l0.577-0.33v2.111l-0.577 0.317v-2.098z"></path>
<path fill="#aeb1b9" style="fill: var(--color15, #aeb1b9)" d="M24.274 11.848l0.577-0.33v2.111l-0.577 0.317v-2.098z"></path>
<path fill="#aeb1b9" style="fill: var(--color15, #aeb1b9)" d="M21.875 13.149l0.575-0.332v2.113l-0.575 0.317v-2.098z"></path>
<path fill="#aeb1b9" style="fill: var(--color15, #aeb1b9)" d="M21.148 13.553l0.575-0.332v2.113l-0.575 0.317v-2.098z"></path>
<path fill="#c3c9d6" style="fill: var(--color10, #c3c9d6)" d="M17.114 19.282v6.197l6.968 3.962v-6.197l-6.968-3.962z"></path>
<path fill="#f33246" style="fill: var(--color16, #f33246)" d="M17.114 19.136l6.968 3.96 9.777-5.599-6.94-3.949-9.805 5.588z"></path>
<path fill="#892b35" style="fill: var(--color4, #892b35)" d="M33.859 17.497v0.328l-9.777 5.599v-0.328l9.777-5.599z"></path>
<path fill="#892b35" style="fill: var(--color4, #892b35)" d="M17.114 19.136v0.326l6.968 3.962v-0.328l-6.968-3.96z"></path>
<path fill="#5f5656" style="fill: var(--color9, #5f5656)" d="M20.401 23.73l-1.731-0.985v3.623l1.731 0.984z"></path>
<path fill="#aeb1b9" style="fill: var(--color15, #aeb1b9)" d="M21.864 24.522l-0.577-0.331v2.113l0.577 0.317v-2.098z"></path>
<path fill="#aeb1b9" style="fill: var(--color15, #aeb1b9)" d="M22.591 24.926l-0.577-0.332v2.113l0.577 0.317v-2.098z"></path>
<path fill="#b2b6c0" style="fill: var(--color8, #b2b6c0)" d="M10.413 23.065l-0.651-0.375v-3.217l0.651 0.375v3.217z"></path>
<path fill="#b2b6c0" style="fill: var(--color8, #b2b6c0)" d="M11.284 23.56l-0.651-0.373v-3.217l0.651 0.373v3.217z"></path>
<path fill="#b2b6c0" style="fill: var(--color8, #b2b6c0)" d="M12.155 24.083l-0.651-0.373v-3.217l0.651 0.373v3.217z"></path>
<path fill="#b2b6c0" style="fill: var(--color8, #b2b6c0)" d="M13.026 24.579l-0.651-0.373v-3.217l0.651 0.373v3.217z"></path>
<path fill="#b2b6c0" style="fill: var(--color8, #b2b6c0)" d="M10.413 17.606l-0.651-0.373v-3.217l0.651 0.373v3.217z"></path>
<path fill="#5f5656" style="fill: var(--color9, #5f5656)" d="M5.77 21.648l-1.685-0.969-0.030-3.231 1.715 0.876v3.324z"></path>
<path fill="#b2b6c0" style="fill: var(--color8, #b2b6c0)" d="M11.284 18.103l-0.651-0.375v-3.217l0.651 0.375v3.217z"></path>
<path fill="#b2b6c0" style="fill: var(--color8, #b2b6c0)" d="M12.155 18.626l-0.651-0.375v-3.217l0.651 0.375v3.217z"></path>
<path fill="#b2b6c0" style="fill: var(--color8, #b2b6c0)" d="M13.026 19.121l-0.651-0.373v-3.217l0.651 0.373v3.217z"></path>
<path fill="#e1e4eb" style="fill: var(--color6, #e1e4eb)" d="M33.894 23.458l-9.813 5.982v-6.016l9.777-5.599 0.035 5.634z"></path>
<path fill="#c3c9d6" style="fill: var(--color10, #c3c9d6)" d="M8.143 12.255l3.024-1.255 3.209 4.796-6.233-3.541z"></path>
</symbol>


<symbol id="icon-house-15" viewBox="0 0 35 32">
<path fill="#c3c9d6" style="fill: var(--color10, #c3c9d6)" d="M33.241 15.443l-6.567-3.634v5.915l6.654 3.659-0.087-5.941z"></path>
<path fill="#e1e4eb" style="fill: var(--color6, #e1e4eb)" d="M2.119 17.342l11.936-6.711v-6.151l-11.936 6.711v6.151z"></path>
<path fill="#c3c9d6" style="fill: var(--color10, #c3c9d6)" d="M2.119 11.191v6.151l2.773 1.558v-5.037l2.317 1.302v5.037l7.531 4.236v-6.103l-12.62-7.144zM12.851 21.97l-3.627-2.061v-3.58l3.627 2.063v3.578z"></path>
<path fill="#c3c9d6" style="fill: var(--color10, #c3c9d6)" d="M14.054 4.48v6.151l1.842 1.006 10.778 6.088v-6.129l-12.62-7.116z"></path>
<path fill="#c3c9d6" style="fill: var(--color10, #c3c9d6)" d="M8.957 7.55v5.965l1.842 1.006 3.047 1.707v-5.037l2.362 1.324 0.002 5.052 5.369 3.042v-5.939l-12.622-7.12z"></path>
<path fill="#e1e4eb" style="fill: var(--color6, #e1e4eb)" d="M14.739 24.434l11.936-6.709v-6.098l-11.936 6.711v6.096z"></path>
<path fill="#e1e4eb" style="fill: var(--color6, #e1e4eb)" d="M23.881 20.97v6.077l9.689-5.449v-6.153l-9.689 5.525zM32.352 20.852l-3.631 2.057v-3.578l3.627-2.061 0.004 3.582z"></path>
<path fill="#c3c9d6" style="fill: var(--color10, #c3c9d6)" d="M16.976 17.088v6.077l1.044 0.586v-5.037l2.364 1.333v5.028l3.497 1.972v-6.077l-6.905-3.882zM23 24.419l-1.674-0.952v-2.497l1.674 0.952v2.497z"></path>
<path fill="#e1e4eb" style="fill: var(--color6, #e1e4eb)" d="M26.675 11.589l-9.698 5.499 6.905 3.882 9.689-5.525-6.895-3.856zM17.324 17.114l9.35-5.302 6.566 3.634-9.341 5.328-6.576-3.659z"></path>
<path fill="#e1e4eb" style="fill: var(--color6, #e1e4eb)" d="M22.573 20.031l4.102-2.306v-5.915l-9.35 5.302 5.248 2.919z"></path>
<path fill="#e1e4eb" style="fill: var(--color6, #e1e4eb)" d="M14.054 4.48l-11.936 6.711 12.62 7.146 11.936-6.748-12.62-7.109zM14.737 18.147l-12.276-6.95 11.592-6.514 12.293 6.902-11.609 6.562z"></path>
<path fill="#6d6d6d" style="fill: var(--color17, #6d6d6d)" d="M4.891 13.863l0.208 0.116v4.788l-0.208 0.133v-5.037z"></path>
<path fill="#6d6d6d" style="fill: var(--color17, #6d6d6d)" d="M9.224 16.329v3.58l0.166-0.090v-3.394l-0.166-0.096z"></path>
<path fill="#8f97a8" style="fill: var(--color18, #8f97a8)" d="M12.851 21.784v0.186l-3.627-2.061 0.166-0.090 3.461 1.965z"></path>
<path fill="#6d6d6d" style="fill: var(--color17, #6d6d6d)" d="M32.352 17.27v3.58l-0.166-0.092v-3.394l0.166-0.094z"></path>
<path fill="#b7bdc9" style="fill: var(--color19, #b7bdc9)" d="M28.725 22.725v0.184l3.627-2.059-0.166-0.092-3.461 1.967z"></path>
<path fill="#6d6d6d" style="fill: var(--color17, #6d6d6d)" d="M18.020 18.714l0.206 0.116v4.788l-0.206 0.133v-5.037z"></path>
<path fill="#6d6d6d" style="fill: var(--color17, #6d6d6d)" d="M21.326 20.968v2.499l0.144-0.076v-2.341l-0.144-0.083z"></path>
<path fill="#8f97a8" style="fill: var(--color18, #8f97a8)" d="M23 24.419v-0.158l-1.53-0.869-0.144 0.076 1.674 0.952z"></path>
<path fill="#dbdfe7" style="fill: var(--color20, #dbdfe7)" d="M8.874 7.504l12.624 7.111 0.163-0.098-12.636-7.133-0.151 0.12z"></path>
<path fill="#6d6d6d" style="fill: var(--color17, #6d6d6d)" d="M13.846 11.191l0.208 0.116v4.786l-0.208 0.134v-5.037z"></path>
<path fill="#e4e6ea" style="fill: var(--color21, #e4e6ea)" d="M3.698 20.725l5.218 2.934 1.008-0.527-5.218-2.934-1.008 0.527z"></path>
<path fill="#8f97a8" style="fill: var(--color18, #8f97a8)" d="M3.698 20.963l5.218 2.934v-0.238l-5.218-2.934v0.238z"></path>
<path fill="#b3b8c1" style="fill: var(--color22, #b3b8c1)" d="M8.916 23.896l1.008-0.527v-0.238l-1.008 0.527v0.238z"></path>
<path fill="#e4e6ea" style="fill: var(--color21, #e4e6ea)" d="M3.836 20.141l5.216 2.934 1.008-0.527-5.218-2.934-1.006 0.527z"></path>
<path fill="#8f97a8" style="fill: var(--color18, #8f97a8)" d="M3.836 20.379l5.216 2.934v-0.238l-5.216-2.934v0.238z"></path>
<path fill="#b3b8c1" style="fill: var(--color22, #b3b8c1)" d="M9.052 23.313l1.008-0.527v-0.238l-1.008 0.527v0.238z"></path>
<path fill="#e4e6ea" style="fill: var(--color21, #e4e6ea)" d="M4.178 22.532l5.216 2.932 1.008-0.527-5.216-2.932-1.008 0.527z"></path>
<path fill="#8f97a8" style="fill: var(--color18, #8f97a8)" d="M4.178 22.767l5.216 2.934v-0.238l-5.216-2.932v0.236z"></path>
<path fill="#b3b8c1" style="fill: var(--color22, #b3b8c1)" d="M9.394 25.701l1.008-0.527v-0.238l-1.008 0.527v0.238z"></path>
<path fill="#e4e6ea" style="fill: var(--color21, #e4e6ea)" d="M4.314 21.948l5.218 2.934 1.008-0.527-5.218-2.934-1.008 0.527z"></path>
<path fill="#8f97a8" style="fill: var(--color18, #8f97a8)" d="M4.314 22.185l5.218 2.932v-0.236l-5.218-2.934v0.238z"></path>
<path fill="#b3b8c1" style="fill: var(--color22, #b3b8c1)" d="M9.532 25.117l1.008-0.527v-0.236l-1.008 0.525v0.238z"></path>
</symbol>


<symbol id="icon-house-16" viewBox="0 0 32 32">
<path fill="#08702d" style="fill: var(--color23, #08702d)" d="M26.784 6.503v2.258l-14.168 19.378-0.434-2.258 14.602-19.378z"></path>
<path fill="#065924" style="fill: var(--color24, #065924)" d="M12.616 25.162v2.977l-7.436-6.739v-2.258l7.436 6.021z"></path>
<path fill="#19bb81" style="fill: var(--color3, #19bb81)" d="M22.887 3.962l3.897 2.541-14.168 19.378-7.436-6.739 3.281-3.225 3.419 3.098 11.006-15.053z"></path>
</symbol>


<symbol id="icon-house-17" viewBox="0 0 32 32">
<path fill="#621d24" style="fill: var(--color25, #621d24)" d="M8.715 24.648l-0.456 2.77-3.532-3.165v-2.279l3.988 2.675z"></path>
<path fill="#be2031" style="fill: var(--color26, #be2031)" d="M27.034 21.973v2.279l-3.532 3.165-0.515-3.232 4.048-2.212z"></path>
<path fill="#621d24" style="fill: var(--color25, #621d24)" d="M23.502 24.695v2.722l-7.621-7.052-0.675-3.217 8.296 7.547z"></path>
<path fill="#be2031" style="fill: var(--color26, #be2031)" d="M15.881 17.148v3.217l-7.621 7.052v-3.216l7.621-7.053z"></path>
<path fill="#be2031" style="fill: var(--color26, #be2031)" d="M27.034 7.764v2.279l-7.677 7.104-0.418-3.031 8.095-6.353z"></path>
<path fill="#621d24" style="fill: var(--color25, #621d24)" d="M12.901 14.010l-0.496 3.138-7.677-7.104v-2.279l8.173 6.245z"></path>
<path fill="#e52f42" style="fill: var(--color1, #e52f42)" d="M23.502 4.599l3.532 3.165-7.677 7.104 7.677 7.104-3.532 3.165-7.621-7.052-7.621 7.052-3.532-3.165 7.677-7.104-7.677-7.104 3.532-3.165 7.621 7.053 7.621-7.053z"></path>
</symbol>


<symbol id="icon-confetti-1" viewBox="0 0 32 32">
<path   d="M0.609 16.76c0-8.033 6.495-14.545 14.507-14.545s14.507 6.512 14.507 14.545c0 8.033-6.495 14.545-14.507 14.545s-14.507-6.512-14.507-14.545z"></path>
</symbol>
<symbol id="icon-confetti-2" viewBox="0 0 53 32">
<path   d="M2.367 25.635v0c-1.384-3.411 0.257-7.302 3.665-8.692l36.931-15.063c3.408-1.39 7.292 0.248 8.676 3.659v-0c1.384 3.411-0.257 7.302-3.665 8.692l-36.931 15.063c-3.408 1.39-7.292-0.248-8.676-3.659z"></path>
</symbol>

<symbol id="icon-house-18" viewBox="0 0 32 32">
<path fill="#c62f3f" style="fill: var(--color27, #c62f3f)" d="M16.555 23.526l-1.54-0.832 2.087-0.291 1.54 0.832-2.087 0.291z"></path>
<path fill="#c62f3f" style="fill: var(--color27, #c62f3f)" d="M14.468 23.817l-1.54-0.832 2.087-0.291 1.54 0.832-2.087 0.291z"></path>
<path fill="#621d24" style="fill: var(--color25, #621d24)" d="M16.546 28.062l-1.54-0.832-2.079-4.245 1.54 0.832 2.079 4.245z"></path>
<path fill="#c62f3f" style="fill: var(--color27, #c62f3f)" d="M18.642 23.234l-2.096 4.828-2.079-4.245 4.174-0.582z"></path>
<path fill="#be2031" style="fill: var(--color26, #be2031)" d="M26.528 5.742l-1.54-0.832c0.153-0.022 0.309-0.014 0.46 0.024l1.54 0.832c-0.15-0.038-0.306-0.046-0.46-0.024z"></path>
<path fill="#be2031" style="fill: var(--color26, #be2031)" d="M26.988 5.766l-1.54-0.832c0.073 0.019 0.144 0.045 0.212 0.078l1.54 0.832c-0.068-0.033-0.139-0.059-0.212-0.078z"></path>
<path fill="#be2031" style="fill: var(--color26, #be2031)" d="M27.2 5.844l-1.54-0.832c0.014 0.007 0.028 0.014 0.041 0.021l1.54 0.832c-0.013-0.007-0.027-0.014-0.041-0.021z"></path>
<path fill="#0f6034" style="fill: var(--color28, #0f6034)" d="M17.306 20.22l-1.54-0.832 0.004-1.899 1.54 0.832-0.004 1.9z"></path>
<path fill="#be2031" style="fill: var(--color26, #be2031)" d="M15.701 20.444l-1.54-0.832 1.605-0.224 1.54 0.832-1.605 0.224z"></path>
<path fill="#892b35" style="fill: var(--color4, #892b35)" d="M17.31 17.668l-1.54-0.832c-0.007-0.493 0.030-0.849 0.111-1.068l1.54 0.832c-0.081 0.219-0.118 0.575-0.111 1.068z"></path>
<path fill="#be2031" style="fill: var(--color26, #be2031)" d="M17.422 16.601l-1.54-0.832c0.005-0.012 0.009-0.024 0.014-0.036 0.012-0.029 0.027-0.059 0.044-0.091l1.54 0.832c-0.017 0.032-0.032 0.062-0.044 0.091-0.005 0.011-0.010 0.023-0.014 0.036z"></path>
<path fill="#be2031" style="fill: var(--color26, #be2031)" d="M17.48 16.474l-1.54-0.832c0.035-0.064 0.074-0.125 0.117-0.185l1.54 0.832c-0.042 0.059-0.081 0.121-0.116 0.185z"></path>
<path fill="#be2031" style="fill: var(--color26, #be2031)" d="M17.596 16.29l-1.54-0.832c0.075-0.107 0.172-0.226 0.288-0.357l1.54 0.832c-0.117 0.131-0.213 0.25-0.289 0.357z"></path>
<path fill="#be2031" style="fill: var(--color26, #be2031)" d="M17.885 15.933l-1.54-0.832c0.075-0.084 0.158-0.174 0.25-0.268 0.228-0.234 0.431-0.451 0.609-0.651l1.54 0.832c-0.178 0.2-0.381 0.417-0.609 0.651-0.092 0.095-0.175 0.184-0.25 0.268z"></path>
<path fill="#be2031" style="fill: var(--color26, #be2031)" d="M18.744 15.014l-1.54-0.832c0.251-0.282 0.452-0.531 0.605-0.746l1.54 0.832c-0.152 0.215-0.354 0.464-0.605 0.746z"></path>
<path fill="#be2031" style="fill: var(--color26, #be2031)" d="M19.349 14.267l-1.54-0.832c0.075-0.105 0.144-0.213 0.207-0.325l1.54 0.832c-0.063 0.112-0.132 0.221-0.207 0.325z"></path>
<path fill="#828282" style="fill: var(--color29, #828282)" d="M15.701 20.444l-1.54-0.832 0.004-1.899 1.54 0.832-0.004 1.899z"></path>
<path fill="#b4b4b4" style="fill: var(--color30, #b4b4b4)" d="M15.704 18.544l-1.54-0.832 1.605-0.224 1.54 0.832-1.605 0.224z"></path>
<path fill="#be2031" style="fill: var(--color26, #be2031)" d="M15.705 17.892l-1.54-0.832 1.605-0.224 1.54 0.832-1.605 0.224z"></path>
<path fill="#be2031" style="fill: var(--color26, #be2031)" d="M19.556 13.942l-1.54-0.832c0.002-0.005 0.005-0.009 0.007-0.014l1.54 0.832-0.007 0.014z"></path>
<path fill="#be2031" style="fill: var(--color26, #be2031)" d="M19.563 13.929l-1.54-0.832c0.066-0.121 0.123-0.246 0.171-0.375l1.54 0.832c-0.048 0.129-0.105 0.254-0.171 0.375z"></path>
<path fill="#892b35" style="fill: var(--color4, #892b35)" d="M19.734 13.554l-1.54-0.832c0.103-0.278 0.155-0.56 0.156-0.845 0.001-0.755-0.298-1.375-0.898-1.86-0.113-0.091-0.234-0.172-0.363-0.241l1.54 0.832c0.128 0.069 0.249 0.15 0.363 0.241 0.6 0.485 0.899 1.105 0.898 1.86-0.001 0.285-0.052 0.567-0.156 0.845z"></path>
<path fill="#892b35" style="fill: var(--color4, #892b35)" d="M19.734 13.554l-1.54-0.832c0.103-0.278 0.155-0.56 0.156-0.845 0.001-0.755-0.298-1.375-0.898-1.86-0.113-0.091-0.234-0.172-0.363-0.241l1.54 0.832c0.128 0.069 0.25 0.15 0.363 0.241 0.6 0.485 0.899 1.105 0.898 1.86-0.001 0.285-0.052 0.567-0.156 0.845z"></path>
<path fill="#858585" style="fill: var(--color31, #858585)" d="M15.705 17.892l-1.54-0.832c-0.004-0.247-0.006-0.397-0.006-0.451 0.001-0.484 0.067-0.902 0.197-1.255l1.54 0.832c-0.131 0.353-0.196 0.771-0.197 1.255 0 0.054 0.002 0.205 0.006 0.451z"></path>
<path fill="#8a8a8a" style="fill: var(--color32, #8a8a8a)" d="M15.897 16.186l-1.54-0.832c0.020-0.054 0.041-0.106 0.065-0.157 0.022-0.049 0.047-0.099 0.075-0.15l1.54 0.832c-0.028 0.051-0.053 0.101-0.075 0.15-0.023 0.051-0.045 0.103-0.064 0.157z"></path>
<path fill="#8f8f8f" style="fill: var(--color33, #8f8f8f)" d="M16.036 15.878l-1.54-0.832c0.064-0.116 0.134-0.228 0.211-0.335l1.54 0.832c-0.077 0.108-0.147 0.22-0.211 0.335z"></path>
<path fill="#949494" style="fill: var(--color34, #949494)" d="M16.247 15.543l-1.54-0.832c0.111-0.158 0.245-0.324 0.401-0.499l1.54 0.832c-0.156 0.175-0.29 0.342-0.401 0.499z"></path>
<path fill="#999" style="fill: var(--color35, #999)" d="M16.648 15.044l-1.54-0.832c0.107-0.121 0.225-0.245 0.354-0.374 0.317-0.319 0.556-0.568 0.718-0.75l1.54 0.832c-0.161 0.181-0.401 0.431-0.717 0.75-0.129 0.129-0.246 0.254-0.354 0.374z"></path>
<path fill="#949494" style="fill: var(--color34, #949494)" d="M17.72 13.919l-1.54-0.832c0.091-0.103 0.158-0.183 0.199-0.242l1.54 0.832c-0.041 0.059-0.108 0.139-0.199 0.242z"></path>
<path fill="#8f8f8f" style="fill: var(--color33, #8f8f8f)" d="M17.919 13.677l-1.54-0.832c0.005-0.008 0.010-0.015 0.015-0.022 0.023-0.036 0.045-0.073 0.065-0.109l1.54 0.832c-0.020 0.037-0.042 0.073-0.065 0.109-0.005 0.007-0.010 0.014-0.015 0.022z"></path>
<path fill="#8a8a8a" style="fill: var(--color32, #8a8a8a)" d="M17.999 13.546l-1.54-0.832c0.034-0.062 0.063-0.125 0.087-0.191l1.54 0.832c-0.024 0.066-0.053 0.129-0.087 0.191z"></path>
<path fill="#858585" style="fill: var(--color31, #858585)" d="M18.086 13.355l-1.54-0.832c0.055-0.147 0.083-0.303 0.084-0.461 0.001-0.367-0.137-0.662-0.412-0.885-0.052-0.042-0.108-0.080-0.167-0.112l1.54 0.832c0.059 0.032 0.115 0.069 0.167 0.112 0.275 0.223 0.413 0.518 0.412 0.885-0 0.157-0.028 0.313-0.083 0.461z"></path>
<path fill="#892b35" style="fill: var(--color4, #892b35)" d="M14.885 13.681l-1.54-0.832c0.036-0.188 0.088-0.373 0.154-0.554l1.54 0.832c-0.066 0.18-0.117 0.365-0.154 0.554z"></path>
<path fill="#be2031" style="fill: var(--color26, #be2031)" d="M15.038 13.127l-1.54-0.832c0.043-0.118 0.095-0.233 0.155-0.344l1.54 0.832c-0.060 0.111-0.111 0.226-0.155 0.344z"></path>
<path fill="#be2031" style="fill: var(--color26, #be2031)" d="M15.193 12.783l-1.54-0.832c0.041-0.076 0.087-0.15 0.137-0.221l1.54 0.832c-0.050 0.071-0.095 0.144-0.137 0.22z"></path>
<path fill="#be2031" style="fill: var(--color26, #be2031)" d="M15.329 12.562l-1.54-0.832c0.042-0.059 0.087-0.116 0.135-0.171l1.54 0.832c-0.048 0.054-0.093 0.111-0.135 0.171z"></path>
<path fill="#be2031" style="fill: var(--color26, #be2031)" d="M15.465 12.392l-1.54-0.832c0.015-0.017 0.031-0.034 0.047-0.051 0.035-0.037 0.072-0.072 0.109-0.105l1.541 0.831c-0.037 0.033-0.074 0.068-0.109 0.105-0.016 0.017-0.032 0.034-0.047 0.051z"></path>
<path fill="#be2031" style="fill: var(--color26, #be2031)" d="M15.621 12.235l-1.54-0.832c0.059-0.053 0.122-0.103 0.188-0.148l1.54 0.832c-0.066 0.045-0.129 0.095-0.188 0.148z"></path>
<path fill="#be2031" style="fill: var(--color26, #be2031)" d="M15.809 12.088l-1.54-0.832c0.082-0.057 0.169-0.106 0.26-0.149l1.54 0.832c-0.091 0.042-0.178 0.092-0.26 0.149z"></path>
<path fill="#be2031" style="fill: var(--color26, #be2031)" d="M16.069 11.939l-1.54-0.832c0.176-0.082 0.367-0.138 0.574-0.167 0.257-0.036 0.484-0.028 0.683 0.023l1.54 0.832c-0.199-0.051-0.426-0.059-0.683-0.023-0.207 0.029-0.398 0.084-0.574 0.167z"></path>
<path fill="#be2031" style="fill: var(--color26, #be2031)" d="M17.326 11.795l-1.54-0.832c0.077 0.020 0.152 0.047 0.223 0.082l1.54 0.832c-0.071-0.035-0.146-0.062-0.223-0.082z"></path>
<path fill="#be2031" style="fill: var(--color26, #be2031)" d="M17.549 11.877l-1.54-0.832c0.014 0.007 0.027 0.013 0.040 0.021l1.54 0.832c-0.013-0.007-0.027-0.014-0.040-0.021z"></path>
<path fill="#158347" style="fill: var(--color36, #158347)" d="M13.259 13.694l-1.54-0.832 1.626-0.013 1.54 0.832-1.626 0.013z"></path>
<path fill="#fff" style="fill: var(--color2, #fff)" d="M18.992 10.848c0.6 0.485 0.899 1.105 0.898 1.86-0.001 0.418-0.112 0.83-0.334 1.234s-0.695 0.978-1.421 1.723c-0.375 0.385-0.609 0.685-0.699 0.9s-0.133 0.583-0.125 1.103l-1.605 0.224c-0.004-0.247-0.006-0.397-0.006-0.451 0.001-0.558 0.088-1.029 0.262-1.412s0.52-0.837 1.040-1.359c0.52-0.522 0.83-0.86 0.932-1.014 0.156-0.242 0.235-0.496 0.235-0.761 0.001-0.367-0.137-0.662-0.412-0.885s-0.647-0.302-1.114-0.237c-0.45 0.063-0.827 0.252-1.131 0.568s-0.513 0.763-0.627 1.34l-1.626 0.014c0.048-0.813 0.369-1.543 0.965-2.189s1.377-1.037 2.343-1.172c1.017-0.142 1.825 0.029 2.425 0.514z"></path>
<path fill="#858585" style="fill: var(--color31, #858585)" d="M13.259 13.694l-1.54-0.832c0.018-0.332 0.086-0.659 0.201-0.97l1.54 0.832c-0.115 0.312-0.183 0.639-0.201 0.971z"></path>
<path fill="#8a8a8a" style="fill: var(--color32, #8a8a8a)" d="M13.46 12.724l-1.54-0.832c0.056-0.15 0.122-0.296 0.198-0.437l1.54 0.832c-0.076 0.141-0.143 0.287-0.198 0.437z"></path>
<path fill="#8f8f8f" style="fill: var(--color33, #8f8f8f)" d="M13.658 12.287l-1.54-0.832c0.069-0.127 0.145-0.249 0.228-0.367l1.54 0.832c-0.083 0.118-0.16 0.24-0.228 0.367z"></path>
<path fill="#949494" style="fill: var(--color34, #949494)" d="M13.887 11.92l-1.54-0.832c0.088-0.124 0.183-0.244 0.285-0.358l1.54 0.832c-0.102 0.114-0.197 0.233-0.285 0.358z"></path>
<path fill="#999" style="fill: var(--color35, #999)" d="M14.172 11.562l-1.54-0.832c0.017-0.019 0.034-0.038 0.052-0.057 0.081-0.087 0.165-0.17 0.252-0.248l1.54 0.832c-0.087 0.078-0.171 0.161-0.252 0.248-0.018 0.019-0.035 0.038-0.052 0.057z"></path>
<path fill="#9e9e9e" style="fill: var(--color37, #9e9e9e)" d="M14.476 11.257l-1.541-0.832c0.112-0.1 0.231-0.193 0.355-0.279l1.54 0.832c-0.124 0.085-0.243 0.178-0.355 0.279z"></path>
<path fill="#a3a3a3" style="fill: var(--color38, #a3a3a3)" d="M14.831 10.978l-1.54-0.832c0.163-0.111 0.334-0.209 0.513-0.293l1.54 0.832c-0.179 0.083-0.35 0.181-0.513 0.293z"></path>
<path fill="#a8a8a8" style="fill: var(--color39, #a8a8a8)" d="M15.344 10.685l-1.54-0.832c0.368-0.172 0.776-0.289 1.223-0.352 0.559-0.078 1.056-0.061 1.489 0.050l1.54 0.832c-0.433-0.112-0.929-0.128-1.489-0.050-0.448 0.062-0.855 0.18-1.223 0.352z"></path>
<path fill="#a3a3a3" style="fill: var(--color38, #a3a3a3)" d="M18.056 10.384l-1.54-0.832c0.168 0.043 0.331 0.102 0.486 0.178l1.54 0.832c-0.156-0.076-0.319-0.135-0.486-0.178z"></path>
<path fill="#9e9e9e" style="fill: var(--color37, #9e9e9e)" d="M18.542 10.562l-1.54-0.832c0.030 0.014 0.059 0.029 0.087 0.045l1.54 0.832c-0.029-0.016-0.058-0.031-0.088-0.045z"></path>
<path fill="#e52f42" style="fill: var(--color1, #e52f42)" d="M26.528 5.743c0.737-0.103 1.338 0.459 1.337 1.248l-0.025 13.527c-0.001 0.789-0.605 1.519-1.342 1.622l-19.885 2.774c-0.737 0.103-1.338-0.459-1.337-1.248l0.025-13.527c0.001-0.789 0.605-1.519 1.342-1.621l19.885-2.774zM19.556 13.942c0.222-0.404 0.333-0.816 0.334-1.234 0.001-0.755-0.298-1.375-0.898-1.86s-1.408-0.656-2.425-0.515c-0.967 0.135-1.748 0.525-2.343 1.172s-0.917 1.376-0.965 2.189l1.626-0.013c0.115-0.577 0.324-1.024 0.627-1.34s0.681-0.506 1.131-0.568c0.467-0.065 0.838 0.014 1.114 0.237s0.413 0.518 0.412 0.885c-0.001 0.266-0.079 0.519-0.236 0.761-0.101 0.154-0.412 0.491-0.932 1.014s-0.866 0.975-1.040 1.359c-0.174 0.384-0.261 0.855-0.262 1.413 0 0.054 0.002 0.204 0.006 0.451l1.605-0.224c-0.007-0.521 0.034-0.888 0.125-1.103s0.324-0.515 0.699-0.9c0.725-0.744 1.199-1.318 1.421-1.723zM17.306 20.22l0.004-1.899-1.605 0.224-0.004 1.899 1.605-0.224z"></path>
<path fill="#fff" style="fill: var(--color2, #fff)" d="M15.701 20.444l0.004-1.899 1.605-0.224-0.004 1.9-1.605 0.224z"></path>
<path fill="#892b35" style="fill: var(--color4, #892b35)" d="M5.899 24.79l-1.54-0.832c-0.375-0.203-0.625-0.617-0.624-1.126l1.54 0.832c-0.001 0.509 0.249 0.923 0.624 1.126z"></path>
<path fill="#be2031" style="fill: var(--color26, #be2031)" d="M6.643 8.517l-1.54-0.832 19.885-2.774 1.54 0.832-19.886 2.774z"></path>
<path fill="#b52030" style="fill: var(--color40, #b52030)" d="M5.275 23.665l-1.54-0.832 0.025-13.527 1.54 0.832-0.025 13.527z"></path>
<path fill="#be2031" style="fill: var(--color26, #be2031)" d="M5.301 10.138l-1.54-0.832c0.001-0.191 0.036-0.381 0.103-0.561l1.54 0.832c-0.067 0.179-0.102 0.369-0.103 0.561z"></path>
<path fill="#be2031" style="fill: var(--color26, #be2031)" d="M5.403 9.577l-1.54-0.832c0.029-0.077 0.063-0.152 0.102-0.225l1.54 0.832c-0.039 0.072-0.073 0.147-0.102 0.225z"></path>
<path fill="#be2031" style="fill: var(--color26, #be2031)" d="M5.505 9.353l-1.54-0.832c0.033-0.061 0.070-0.12 0.11-0.177l1.54 0.832c-0.040 0.057-0.077 0.116-0.11 0.177z"></path>
<path fill="#be2031" style="fill: var(--color26, #be2031)" d="M5.615 9.176l-1.54-0.832c0.038-0.053 0.078-0.104 0.121-0.153l1.54 0.832c-0.043 0.049-0.084 0.1-0.121 0.153z"></path>
<path fill="#be2031" style="fill: var(--color26, #be2031)" d="M5.736 9.023l-1.54-0.832c0.043-0.049 0.089-0.095 0.138-0.138l1.54 0.832c-0.048 0.043-0.094 0.089-0.138 0.138z"></path>
<path fill="#be2031" style="fill: var(--color26, #be2031)" d="M5.874 8.885l-1.54-0.832c0.051-0.046 0.106-0.089 0.163-0.128l1.54 0.832c-0.057 0.039-0.111 0.082-0.163 0.128z"></path>
<path fill="#be2031" style="fill: var(--color26, #be2031)" d="M6.037 8.757l-1.54-0.832c0.069-0.047 0.142-0.089 0.218-0.125l1.54 0.832c-0.076 0.035-0.149 0.077-0.218 0.125z"></path>
<path fill="#be2031" style="fill: var(--color26, #be2031)" d="M6.254 8.633l-1.54-0.832c0.123-0.058 0.254-0.097 0.389-0.116l1.54 0.832c-0.135 0.019-0.266 0.058-0.388 0.116z"></path>
</symbol>

<symbol id="icon-house-5" viewBox="0 0 35 32">
<path fill="#e1e4eb" style="fill: var(--color1, #e1e4eb)" d="M19.901 29.089l11.33-6.564v-8.291l-5.665-1.070-5.665 7.634v8.291z"></path>
<path fill="#c3c9d6" style="fill: var(--color2, #c3c9d6)" d="M19.901 29.089l-15.016-8.74v-7.184l15.016 7.634v8.291z"></path>
<path fill="#b3202f" style="fill: var(--color3, #b3202f)" d="M19.224 21.771l-15.193-8.435v-0.783l6.484-8.647 6.599 1.289 14.842 8.832 0.021 0.346-6.272-1.184-6.483 8.581z"></path>
<path fill="#e52f42" style="fill: var(--color4, #e52f42)" d="M25.351 12.565l-6.236 8.32-15.084-8.32 6.483-8.659 14.837 8.659z"></path>
<path fill="#aeb1b9" style="fill: var(--color5, #aeb1b9)" d="M12.341 24.689l-5.443-3.169v-4.212l5.443 3.093v4.288z"></path>
<path fill="#aeb1b9" style="fill: var(--color5, #aeb1b9)" d="M14.235 21.42l2.002 1.047v4.489l-2.002-1.161v-4.376z"></path>
<path fill="#aeb1b9" style="fill: var(--color5, #aeb1b9)" d="M25.447 18.699v3.115l-1.871 1.068v-3.063l1.871-1.119z"></path>
<path fill="#aeb1b9" style="fill: var(--color5, #aeb1b9)" d="M28.159 20.268l-1.847 1.054v-3.139l1.842-1.101 0.005 3.186z"></path>
</symbol>


<symbol id="icon-house-6" viewBox="0 0 35 32">
<path fill="#e52f42" style="fill: var(--color4, #e52f42)" d="M0.912 14.394l17.465-10.049-3.784 15.367-13.681-5.317z"></path>
<path fill="#be2031" style="fill: var(--color6, #be2031)" d="M18.377 4.345l-3.784 15.367 19.551-7.171-15.767-8.196z"></path>
<path fill="#c3c9d6" style="fill: var(--color2, #c3c9d6)" d="M2.771 15.37v6.732l11.822 5.399v-7.643l-11.822-4.488z"></path>
<path fill="#e1e4eb" style="fill: var(--color1, #e1e4eb)" d="M14.593 19.858l18.46-6.536v6.536l-18.46 7.643v-7.643z"></path>
<path fill="#892b35" style="fill: var(--color7, #892b35)" d="M34.145 12.541v0.837l-19.697 7.228-13.536-5.35v-0.862l13.681 5.317 19.552-7.171z"></path>
<path fill="#aeb1b9" style="fill: var(--color5, #aeb1b9)" d="M9.485 25.187l-3.005-1.372v-4.032l3.071 1.145-0.066 4.259z"></path>
<path fill="#aeb1b9" style="fill: var(--color5, #aeb1b9)" d="M18.79 20.103l3.602-1.29v3.421l-3.602 1.348v-3.479z"></path>
<path fill="#aeb1b9" style="fill: var(--color5, #aeb1b9)" d="M26.722 17.261v3.351l-3.19 1.194v-3.403l3.19-1.143z"></path>
</symbol>


<symbol id="icon-house-7" viewBox="0 0 35 32">
<path fill="#c62f3f" style="fill: var(--color8, #c62f3f)" d="M18.234 22.302l-1.486-0.824 2.013-0.288 1.486 0.824-2.013 0.288z"></path>
<path fill="#c62f3f" style="fill: var(--color8, #c62f3f)" d="M16.22 22.591l-1.486-0.824 2.013-0.288 1.486 0.824-2.013 0.288z"></path>
<path fill="#621d24" style="fill: var(--color9, #621d24)" d="M18.225 26.795l-1.486-0.824-2.005-4.204 1.486 0.824 2.005 4.204z"></path>
<path fill="#c62f3f" style="fill: var(--color8, #c62f3f)" d="M20.247 22.014l-2.021 4.781-2.005-4.204 4.027-0.577z"></path>
<path fill="#be2031" style="fill: var(--color6, #be2031)" d="M27.855 4.691l-1.486-0.824c0.148-0.022 0.299-0.014 0.443 0.023l1.486 0.824c-0.145-0.037-0.296-0.045-0.443-0.023z"></path>
<path fill="#be2031" style="fill: var(--color6, #be2031)" d="M28.298 4.714l-1.486-0.824c0.071 0.019 0.139 0.044 0.204 0.077l1.486 0.824c-0.065-0.033-0.134-0.059-0.205-0.077z"></path>
<path fill="#be2031" style="fill: var(--color6, #be2031)" d="M28.503 4.791l-1.486-0.824c0.013 0.007 0.027 0.014 0.040 0.021l1.486 0.824c-0.013-0.007-0.026-0.014-0.040-0.021z"></path>
<path fill="#0f6034" style="fill: var(--color10, #0f6034)" d="M18.958 19.028l-1.486-0.824 0.003-1.881 1.486 0.824-0.003 1.881z"></path>
<path fill="#be2031" style="fill: var(--color6, #be2031)" d="M17.41 19.25l-1.486-0.824 1.548-0.222 1.486 0.824-1.548 0.222z"></path>
<path fill="#892b35" style="fill: var(--color7, #892b35)" d="M18.962 16.502l-1.486-0.824c-0.007-0.488 0.029-0.841 0.107-1.057l1.486 0.824c-0.078 0.217-0.114 0.569-0.107 1.057z"></path>
<path fill="#be2031" style="fill: var(--color6, #be2031)" d="M19.070 15.444l-1.486-0.824c0.004-0.012 0.009-0.024 0.014-0.035 0.012-0.028 0.026-0.058 0.042-0.090l1.486 0.824c-0.017 0.031-0.031 0.061-0.043 0.090-0.005 0.011-0.009 0.023-0.014 0.035z"></path>
<path fill="#be2031" style="fill: var(--color6, #be2031)" d="M19.126 15.319l-1.486-0.824c0.034-0.063 0.071-0.124 0.112-0.183l1.486 0.824c-0.041 0.059-0.078 0.12-0.112 0.183z"></path>
<path fill="#be2031" style="fill: var(--color6, #be2031)" d="M19.238 15.136l-1.486-0.824c0.073-0.105 0.165-0.223 0.278-0.354l1.486 0.824c-0.113 0.13-0.206 0.248-0.278 0.354z"></path>
<path fill="#be2031" style="fill: var(--color6, #be2031)" d="M19.516 14.783l-1.486-0.824c0.072-0.083 0.153-0.172 0.242-0.265 0.22-0.232 0.416-0.446 0.588-0.645l1.486 0.824c-0.172 0.198-0.368 0.413-0.588 0.645-0.089 0.094-0.169 0.182-0.242 0.265z"></path>
<path fill="#be2031" style="fill: var(--color6, #be2031)" d="M20.346 13.873l-1.486-0.824c0.242-0.279 0.436-0.526 0.583-0.739l1.486 0.824c-0.147 0.213-0.341 0.46-0.583 0.739z"></path>
<path fill="#be2031" style="fill: var(--color6, #be2031)" d="M20.929 13.134l-1.486-0.824c0.072-0.104 0.139-0.211 0.199-0.322l1.486 0.824c-0.061 0.111-0.127 0.219-0.199 0.322z"></path>
<path fill="#828282" style="fill: var(--color11, #828282)" d="M17.41 19.25l-1.486-0.824 0.003-1.881 1.486 0.824-0.003 1.881z"></path>
<path fill="#b4b4b4" style="fill: var(--color12, #b4b4b4)" d="M17.413 17.369l-1.486-0.824 1.548-0.222 1.486 0.824-1.548 0.222z"></path>
<path fill="#be2031" style="fill: var(--color6, #be2031)" d="M17.414 16.723l-1.486-0.824 1.548-0.222 1.486 0.824-1.548 0.222z"></path>
<path fill="#be2031" style="fill: var(--color6, #be2031)" d="M21.128 12.811l-1.486-0.824c0.002-0.004 0.005-0.009 0.007-0.013l1.486 0.824-0.007 0.013z"></path>
<path fill="#be2031" style="fill: var(--color6, #be2031)" d="M21.136 12.798l-1.486-0.824c0.063-0.12 0.119-0.244 0.165-0.371l1.486 0.824c-0.046 0.128-0.101 0.252-0.165 0.371z"></path>
<path fill="#892b35" style="fill: var(--color7, #892b35)" d="M21.3 12.427l-1.486-0.824c0.1-0.276 0.15-0.555 0.15-0.837 0.001-0.748-0.287-1.362-0.866-1.842-0.109-0.091-0.226-0.171-0.35-0.239l1.486 0.824c0.124 0.068 0.241 0.148 0.35 0.239 0.579 0.48 0.867 1.094 0.866 1.842-0 0.282-0.051 0.561-0.15 0.837z"></path>
<path fill="#892b35" style="fill: var(--color7, #892b35)" d="M21.3 12.427l-1.486-0.824c0.1-0.276 0.15-0.555 0.15-0.837 0.001-0.748-0.287-1.362-0.866-1.842-0.109-0.091-0.226-0.171-0.35-0.239l1.486 0.824c0.124 0.068 0.241 0.149 0.35 0.239 0.579 0.48 0.867 1.094 0.866 1.842-0 0.282-0.051 0.561-0.15 0.837z"></path>
<path fill="#858585" style="fill: var(--color13, #858585)" d="M17.414 16.724l-1.486-0.824c-0.004-0.244-0.006-0.393-0.006-0.447 0.001-0.479 0.064-0.893 0.19-1.243l1.486 0.824c-0.126 0.35-0.189 0.764-0.19 1.243 0 0.054 0.002 0.203 0.006 0.447z"></path>
<path fill="#8a8a8a" style="fill: var(--color14, #8a8a8a)" d="M17.599 15.034l-1.486-0.824c0.019-0.053 0.040-0.105 0.062-0.156 0.021-0.049 0.045-0.098 0.072-0.149l1.486 0.824c-0.027 0.051-0.051 0.1-0.072 0.149-0.022 0.050-0.043 0.102-0.062 0.156z"></path>
<path fill="#8f8f8f" style="fill: var(--color15, #8f8f8f)" d="M17.733 14.729l-1.486-0.824c0.061-0.115 0.129-0.226 0.203-0.332l1.486 0.824c-0.074 0.107-0.142 0.217-0.203 0.332z"></path>
<path fill="#949494" style="fill: var(--color16, #949494)" d="M17.937 14.397l-1.486-0.824c0.108-0.156 0.236-0.321 0.387-0.494l1.486 0.824c-0.151 0.174-0.279 0.339-0.387 0.495z"></path>
<path fill="#999" style="fill: var(--color17, #999)" d="M18.324 13.902l-1.486-0.824c0.104-0.119 0.217-0.243 0.341-0.371 0.306-0.315 0.536-0.563 0.692-0.743l1.486 0.824c-0.156 0.18-0.386 0.427-0.692 0.743-0.124 0.128-0.238 0.251-0.341 0.371z"></path>
<path fill="#949494" style="fill: var(--color16, #949494)" d="M19.357 12.789l-1.486-0.824c0.088-0.102 0.152-0.181 0.192-0.24l1.486 0.824c-0.040 0.058-0.104 0.138-0.192 0.24z"></path>
<path fill="#8f8f8f" style="fill: var(--color15, #8f8f8f)" d="M19.549 12.549l-1.486-0.824c0.005-0.008 0.010-0.015 0.014-0.022 0.023-0.036 0.043-0.072 0.063-0.108l1.486 0.824c-0.019 0.036-0.040 0.073-0.063 0.108-0.004 0.007-0.009 0.014-0.014 0.022z"></path>
<path fill="#8a8a8a" style="fill: var(--color14, #8a8a8a)" d="M19.626 12.419l-1.486-0.824c0.032-0.061 0.060-0.124 0.084-0.189l1.486 0.824c-0.024 0.065-0.052 0.128-0.084 0.189z"></path>
<path fill="#858585" style="fill: var(--color13, #858585)" d="M19.71 12.23l-1.486-0.824c0.053-0.146 0.080-0.301 0.081-0.456 0.001-0.363-0.132-0.655-0.397-0.877-0.050-0.042-0.104-0.079-0.161-0.111l1.486 0.824c0.057 0.032 0.111 0.069 0.161 0.111 0.266 0.221 0.398 0.513 0.397 0.877-0 0.156-0.027 0.31-0.081 0.456z"></path>
<path fill="#892b35" style="fill: var(--color7, #892b35)" d="M16.622 12.552l-1.486-0.824c0.035-0.186 0.085-0.37 0.148-0.548l1.486 0.824c-0.063 0.179-0.113 0.362-0.148 0.548z"></path>
<path fill="#be2031" style="fill: var(--color6, #be2031)" d="M16.77 12.004l-1.486-0.824c0.042-0.117 0.092-0.231 0.149-0.341l1.486 0.824c-0.058 0.11-0.108 0.224-0.149 0.341z"></path>
<path fill="#be2031" style="fill: var(--color6, #be2031)" d="M16.92 11.663l-1.486-0.824c0.040-0.075 0.084-0.148 0.132-0.218l1.486 0.824c-0.048 0.070-0.092 0.143-0.132 0.218z"></path>
<path fill="#be2031" style="fill: var(--color6, #be2031)" d="M17.052 11.445l-1.486-0.824c0.040-0.059 0.084-0.115 0.131-0.169l1.486 0.824c-0.047 0.054-0.090 0.11-0.131 0.169z"></path>
<path fill="#be2031" style="fill: var(--color6, #be2031)" d="M17.182 11.276l-1.486-0.824c0.015-0.017 0.030-0.034 0.046-0.051 0.034-0.036 0.069-0.071 0.105-0.104l1.486 0.823c-0.036 0.033-0.071 0.068-0.105 0.104-0.015 0.016-0.031 0.033-0.046 0.051z"></path>
<path fill="#be2031" style="fill: var(--color6, #be2031)" d="M17.333 11.121l-1.486-0.824c0.057-0.053 0.118-0.102 0.181-0.146l1.486 0.824c-0.063 0.045-0.124 0.094-0.181 0.146z"></path>
<path fill="#be2031" style="fill: var(--color6, #be2031)" d="M17.514 10.975l-1.486-0.824c0.079-0.056 0.163-0.105 0.251-0.147l1.486 0.824c-0.087 0.042-0.171 0.091-0.251 0.147z"></path>
<path fill="#be2031" style="fill: var(--color6, #be2031)" d="M17.765 10.828l-1.486-0.824c0.17-0.082 0.354-0.136 0.554-0.165 0.248-0.035 0.467-0.028 0.659 0.023l1.486 0.824c-0.192-0.051-0.411-0.058-0.659-0.023-0.2 0.029-0.384 0.084-0.554 0.165z"></path>
<path fill="#be2031" style="fill: var(--color6, #be2031)" d="M18.978 10.685l-1.486-0.824c0.074 0.019 0.146 0.047 0.215 0.081l1.486 0.824c-0.069-0.034-0.141-0.061-0.215-0.081z"></path>
<path fill="#be2031" style="fill: var(--color6, #be2031)" d="M19.193 10.766l-1.486-0.824c0.013 0.007 0.026 0.013 0.039 0.020l1.486 0.824c-0.013-0.007-0.026-0.014-0.039-0.020z"></path>
<path fill="#158347" style="fill: var(--color18, #158347)" d="M15.054 12.566l-1.486-0.824 1.568-0.013 1.486 0.824-1.568 0.013z"></path>
<path fill="#fff" style="fill: var(--color19, #fff)" d="M20.585 9.747c0.579 0.48 0.867 1.094 0.866 1.842-0.001 0.414-0.108 0.822-0.322 1.222s-0.671 0.969-1.371 1.706c-0.362 0.382-0.587 0.679-0.675 0.892s-0.128 0.577-0.121 1.093l-1.548 0.222c-0.004-0.244-0.006-0.393-0.006-0.447 0.001-0.552 0.085-1.019 0.253-1.399s0.502-0.829 1.003-1.346c0.501-0.517 0.801-0.852 0.899-1.004 0.151-0.24 0.227-0.491 0.227-0.754 0.001-0.363-0.132-0.655-0.397-0.877s-0.624-0.299-1.075-0.235c-0.434 0.062-0.798 0.25-1.091 0.563s-0.495 0.755-0.605 1.327l-1.568 0.014c0.046-0.805 0.356-1.528 0.931-2.168s1.328-1.027 2.26-1.16c0.981-0.141 1.761 0.029 2.339 0.509z"></path>
<path fill="#858585" style="fill: var(--color13, #858585)" d="M15.054 12.566l-1.486-0.824c0.018-0.328 0.083-0.652 0.194-0.961l1.486 0.824c-0.111 0.309-0.176 0.633-0.194 0.961z"></path>
<path fill="#8a8a8a" style="fill: var(--color14, #8a8a8a)" d="M15.248 11.605l-1.486-0.824c0.054-0.149 0.118-0.293 0.191-0.432l1.486 0.824c-0.074 0.139-0.138 0.284-0.191 0.432z"></path>
<path fill="#8f8f8f" style="fill: var(--color15, #8f8f8f)" d="M15.44 11.172l-1.486-0.824c0.066-0.126 0.14-0.247 0.22-0.364l1.486 0.824c-0.080 0.117-0.154 0.238-0.22 0.364z"></path>
<path fill="#949494" style="fill: var(--color16, #949494)" d="M15.66 10.809l-1.486-0.824c0.085-0.123 0.177-0.242 0.275-0.354l1.486 0.824c-0.098 0.113-0.19 0.231-0.275 0.354z"></path>
<path fill="#999" style="fill: var(--color17, #999)" d="M15.935 10.455l-1.486-0.824c0.016-0.019 0.033-0.038 0.050-0.057 0.078-0.087 0.159-0.169 0.243-0.246l1.486 0.824c-0.084 0.077-0.165 0.159-0.243 0.246-0.017 0.019-0.034 0.038-0.050 0.057z"></path>
<path fill="#9e9e9e" style="fill: var(--color20, #9e9e9e)" d="M16.228 10.152l-1.486-0.824c0.108-0.099 0.223-0.191 0.342-0.276l1.486 0.824c-0.12 0.084-0.234 0.177-0.342 0.276z"></path>
<path fill="#a3a3a3" style="fill: var(--color21, #a3a3a3)" d="M16.57 9.876l-1.486-0.824c0.157-0.11 0.322-0.207 0.495-0.29l1.486 0.824c-0.173 0.083-0.338 0.18-0.495 0.29z"></path>
<path fill="#a8a8a8" style="fill: var(--color22, #a8a8a8)" d="M17.065 9.586l-1.486-0.824c0.355-0.17 0.748-0.287 1.18-0.348 0.54-0.077 1.018-0.061 1.436 0.050l1.486 0.824c-0.418-0.111-0.897-0.127-1.436-0.050-0.432 0.062-0.825 0.178-1.18 0.348z"></path>
<path fill="#a3a3a3" style="fill: var(--color21, #a3a3a3)" d="M19.681 9.288l-1.486-0.824c0.162 0.042 0.319 0.101 0.469 0.176l1.486 0.824c-0.15-0.075-0.307-0.134-0.469-0.176z"></path>
<path fill="#9e9e9e" style="fill: var(--color20, #9e9e9e)" d="M20.151 9.464l-1.486-0.824c0.028 0.014 0.057 0.029 0.084 0.045l1.486 0.824c-0.028-0.015-0.056-0.030-0.084-0.044z"></path>
<path fill="#e52f42" style="fill: var(--color4, #e52f42)" d="M27.855 4.691c0.711-0.102 1.291 0.454 1.289 1.236l-0.024 13.396c-0.001 0.782-0.584 1.504-1.295 1.606l-19.183 2.747c-0.711 0.102-1.291-0.454-1.29-1.236l0.024-13.396c0.001-0.781 0.584-1.504 1.295-1.606l19.183-2.747zM21.128 12.811c0.214-0.4 0.321-0.808 0.322-1.222 0.001-0.748-0.287-1.362-0.866-1.842s-1.358-0.65-2.339-0.51c-0.932 0.133-1.686 0.52-2.26 1.16s-0.885 1.363-0.931 2.168l1.568-0.013c0.111-0.572 0.312-1.014 0.605-1.327s0.657-0.501 1.091-0.563c0.451-0.065 0.809 0.014 1.075 0.235s0.398 0.513 0.397 0.876c-0 0.263-0.076 0.514-0.227 0.754-0.098 0.152-0.398 0.487-0.899 1.004s-0.836 0.966-1.003 1.346c-0.167 0.38-0.252 0.847-0.253 1.399 0 0.054 0.002 0.202 0.006 0.447l1.548-0.222c-0.007-0.516 0.033-0.88 0.121-1.093s0.313-0.51 0.675-0.892c0.7-0.737 1.157-1.305 1.37-1.706zM18.958 19.028l0.003-1.881-1.548 0.222-0.003 1.881 1.548-0.222z"></path>
<path fill="#fff" style="fill: var(--color19, #fff)" d="M17.41 19.25l0.003-1.881 1.548-0.222-0.003 1.881-1.548 0.222z"></path>
<path fill="#892b35" style="fill: var(--color7, #892b35)" d="M7.955 23.555l-1.486-0.824c-0.362-0.201-0.603-0.611-0.602-1.115l1.486 0.824c-0.001 0.504 0.24 0.914 0.602 1.115z"></path>
<path fill="#be2031" style="fill: var(--color6, #be2031)" d="M8.672 7.438l-1.486-0.824 19.183-2.747 1.486 0.824-19.183 2.747z"></path>
<path fill="#b52030" style="fill: var(--color23, #b52030)" d="M7.353 22.44l-1.486-0.824 0.024-13.396 1.486 0.824-0.024 13.396z"></path>
<path fill="#be2031" style="fill: var(--color6, #be2031)" d="M7.377 9.044l-1.486-0.824c0.001-0.19 0.034-0.378 0.099-0.555l1.486 0.824c-0.065 0.178-0.098 0.366-0.099 0.555z"></path>
<path fill="#be2031" style="fill: var(--color6, #be2031)" d="M7.476 8.489l-1.486-0.824c0.028-0.076 0.060-0.151 0.098-0.222l1.486 0.824c-0.038 0.072-0.071 0.146-0.098 0.222z"></path>
<path fill="#be2031" style="fill: var(--color6, #be2031)" d="M7.574 8.266l-1.486-0.824c0.032-0.060 0.067-0.119 0.106-0.175l1.486 0.824c-0.039 0.056-0.074 0.115-0.106 0.175z"></path>
<path fill="#be2031" style="fill: var(--color6, #be2031)" d="M7.68 8.091l-1.486-0.824c0.036-0.053 0.075-0.103 0.117-0.152l1.486 0.824c-0.042 0.048-0.081 0.099-0.117 0.152z"></path>
<path fill="#be2031" style="fill: var(--color6, #be2031)" d="M7.797 7.94l-1.486-0.824c0.042-0.048 0.086-0.094 0.133-0.137l1.486 0.824c-0.047 0.043-0.091 0.088-0.133 0.137z"></path>
<path fill="#be2031" style="fill: var(--color6, #be2031)" d="M7.93 7.803l-1.486-0.824c0.050-0.046 0.102-0.088 0.157-0.127l1.486 0.824c-0.055 0.039-0.107 0.081-0.157 0.127z"></path>
<path fill="#be2031" style="fill: var(--color6, #be2031)" d="M8.087 7.677l-1.486-0.824c0.066-0.047 0.137-0.088 0.21-0.123l1.486 0.824c-0.073 0.035-0.143 0.076-0.21 0.123z"></path>
<path fill="#be2031" style="fill: var(--color6, #be2031)" d="M8.297 7.553l-1.486-0.824c0.119-0.057 0.245-0.096 0.375-0.115l1.486 0.824c-0.13 0.019-0.256 0.058-0.375 0.115z"></path>
</symbol>


<symbol id="icon-house-3" viewBox="0 0 35 32">
<path fill="#c3c9d6" style="fill: var(--color2, #c3c9d6)" d="M3.87 20.918l10.058 5.852v-11.194l-10.058-5.944v11.286z"></path>
<path fill="#e1e4eb" style="fill: var(--color1, #e1e4eb)" d="M13.928 15.575l2.852-1.688v11.286l-2.852 1.596v-11.194z"></path>
<path fill="#c3c9d6" style="fill: var(--color2, #c3c9d6)" d="M16.78 13.887l7.364 4.58v11.031l-7.364-4.324v-11.286z"></path>
<path fill="#e1e4eb" style="fill: var(--color1, #e1e4eb)" d="M24.144 18.466l7.124-4.41v11.471l-7.124 3.97v-11.031z"></path>
<path fill="#e52f42" style="fill: var(--color4, #e52f42)" d="M3.87 9.631l10.215-6.028 17.182 10.453-7.124 4.41-7.364-4.58-2.852 1.688-10.058-5.944z"></path>
<path fill="#aeb1b9" style="fill: var(--color5, #aeb1b9)" d="M5.576 9.631l8.352 4.927 2.852-1.666 7.364 4.464 5.366-3.469-15.581-9.32-8.352 5.064z"></path>
<path fill="#892b35" style="fill: var(--color7, #892b35)" d="M5.576 9.631l0.55 0.327 7.87-4.779v-0.716l-8.42 5.169z"></path>
<path fill="#b3202f" style="fill: var(--color3, #b3202f)" d="M13.996 4.463l15.513 9.424-0.529 0.342-14.984-9.050v-0.716z"></path>
<path fill="#aeb1b9" style="fill: var(--color5, #aeb1b9)" d="M12.521 25.968l-2.709-1.578v-6.307l2.709 1.619v6.266z"></path>
<path fill="#aeb1b9" style="fill: var(--color5, #aeb1b9)" d="M8.495 20.842l-3.015-1.824v-3.36l3.015 1.768v3.416z"></path>
<path fill="#aeb1b9" style="fill: var(--color5, #aeb1b9)" d="M18.094 18.952l1.706 0.996v5.362l-1.706-1.027v-5.331z"></path>
<path fill="#aeb1b9" style="fill: var(--color5, #aeb1b9)" d="M22.932 21.777v5.419l-1.729-1.042v-5.387l1.729 1.009z"></path>
</symbol>


<symbol id="icon-house-4" viewBox="0 0 35 32">
<path fill="#e1e4eb" style="fill: var(--color1, #e1e4eb)" d="M30.451 23.517l-10.471 5.615v-8.536l10.547-7.867-0.076 10.789z"></path>
<path fill="#c3c9d6" style="fill: var(--color2, #c3c9d6)" d="M19.98 20.595l-16.777-9.061v8.724l16.777 8.873v-8.536z"></path>
<path fill="#892b35" style="fill: var(--color7, #892b35)" d="M2.556 10.374v0.824l17.417 9.397 11.079-8.262v-0.632l-17.639-9.366-10.857 8.039z"></path>
<path fill="#e52f42" style="fill: var(--color4, #e52f42)" d="M2.583 10.374l17.518 9.385 10.955-8.057-17.585-9.341-10.889 8.013z"></path>
<path fill="#aeb1b9" style="fill: var(--color5, #aeb1b9)" d="M22.961 21.474l2.315-1.134v3.412l-2.294 1.246-0.021-3.525z"></path>
<path fill="#aeb1b9" style="fill: var(--color5, #aeb1b9)" d="M28.137 18.94v3.257l-2.163 1.176v-3.374l2.163-1.059z"></path>
<path fill="#aeb1b9" style="fill: var(--color5, #aeb1b9)" d="M11.558 24.678l-6.050-3.201-0.122-6.785 6.172 3.145v6.841z"></path>
<path fill="#aeb1b9" style="fill: var(--color5, #aeb1b9)" d="M16.457 25.108l-2.85-1.535v-3.085l2.85 1.431v3.189z"></path>
</symbol>


<symbol id="icon-house-9" viewBox="0 0 32 32">
<path fill="#e1e4eb" style="fill: var(--color1, #e1e4eb)" d="M16.147 32l14.435-8.321v-10.438l-14.435 5.637v13.122z"></path>
<path fill="#e52f42" style="fill: var(--color2, #e52f42)" d="M8.649 8.291l14.435-8.291 8.915 13.957-14.376 8.35-8.974-14.017z"></path>
<path fill="#c3c9d6" style="fill: var(--color3, #c3c9d6)" d="M1.28 11.44v11.858l14.867 8.701v-11.512l-7.498-11.869-7.369 2.821z"></path>
<path fill="#a8acb6" style="fill: var(--color4, #a8acb6)" d="M1.28 11.809v1.015l6.857-2.768 7.954 11.994v-0.821l-7.533-12.425-7.278 3.006z"></path>
<path fill="#c3c9d6" style="fill: var(--color3, #c3c9d6)" d="M0 11.839l0.382 0.797 7.908-3.252 8.682 13.35 0.652-0.426-8.974-14.017z"></path>
<path fill="#b2202f" style="fill: var(--color5, #b2202f)" d="M23.085 0l-9.092 3.579-13.992 8.26 8.649-3.549 14.435-8.291z"></path>
<path fill="#aeb1b9" style="fill: var(--color6, #aeb1b9)" d="M6.996 23.605l-3.837-2.208v-4.846l3.837 2.192v4.861z"></path>
<path fill="#aeb1b9" style="fill: var(--color6, #aeb1b9)" d="M13.294 30.326l-3.837-2.25v-7.846l3.837 2.078v8.018z"></path>
<path fill="#aeb1b9" style="fill: var(--color6, #aeb1b9)" d="M19.566 22.604l2.194-1.199v4.89l-2.194 1.292v-4.982z"></path>
<path fill="#aeb1b9" style="fill: var(--color6, #aeb1b9)" d="M22.126 21.22l2.377-1.292 0.014 4.787-2.391 1.395v-4.89z"></path>
<path fill="#aeb1b9" style="fill: var(--color6, #aeb1b9)" d="M27.429 18.267v4.775l-2.56 1.499v-4.797l2.56-1.476z"></path>
<path fill="#b1b5bc" style="fill: var(--color7, #b1b5bc)" d="M26.213 7.368l-12.093 7.116-3.621-5.706 12.097-7.083 3.617 5.673z"></path>
<path fill="#3d404b" style="fill: var(--color8, #3d404b)" d="M15.133 9.732l-2.686 1.611-1.525-2.456 2.748-1.606 1.463 2.452z"></path>
<path fill="#3d404b" style="fill: var(--color8, #3d404b)" d="M18.106 8.002l-2.687 1.611-1.525-2.455 2.748-1.607 1.464 2.452z"></path>
<path fill="#3d404b" style="fill: var(--color8, #3d404b)" d="M19.797 10.667l-2.686 1.611-1.525-2.456 2.748-1.606 1.463 2.452z"></path>
<path fill="#3d404b" style="fill: var(--color8, #3d404b)" d="M21.058 6.34l-2.687 1.611-1.525-2.455 2.749-1.607 1.463 2.452z"></path>
<path fill="#3d404b" style="fill: var(--color8, #3d404b)" d="M24.010 4.641l-2.686 1.611-1.526-2.455 2.749-1.607 1.463 2.452z"></path>
<path fill="#3d404b" style="fill: var(--color8, #3d404b)" d="M22.75 8.958l-2.687 1.611-1.525-2.455 2.749-1.607 1.463 2.452z"></path>
<path fill="#3d404b" style="fill: var(--color8, #3d404b)" d="M25.672 7.214l-2.686 1.611-1.525-2.456 2.748-1.606 1.463 2.452z"></path>
<path fill="#3d404b" style="fill: var(--color8, #3d404b)" d="M16.826 12.416l-2.686 1.61-1.525-2.455 2.748-1.607 1.463 2.453z"></path>
</symbol>


<symbol id="icon-house-10" viewBox="0 0 32 32">
<path fill="#e1e4eb" style="fill: var(--color1, #e1e4eb)" d="M16.147 32l14.435-8.321v-10.438l-14.435 5.637v13.122z"></path>
<path fill="#e52f42" style="fill: var(--color2, #e52f42)" d="M8.649 8.291l14.435-8.291 8.915 13.957-14.376 8.35-8.974-14.017z"></path>
<path fill="#c3c9d6" style="fill: var(--color3, #c3c9d6)" d="M1.298 11.422v11.869l14.849 8.709v-11.512l-7.498-11.869-7.351 2.803z"></path>
<path fill="#a8acb6" style="fill: var(--color4, #a8acb6)" d="M1.191 11.959l0.064 1 7.232-2.803 7.927 12.152 0.649-0.359-8.412-13.062-7.459 3.072z"></path>
<path fill="#c3c9d6" style="fill: var(--color3, #c3c9d6)" d="M0 11.839l0.382 0.797 7.908-3.252 8.682 13.35 0.652-0.426-8.974-14.017z"></path>
<path fill="#b2202f" style="fill: var(--color5, #b2202f)" d="M23.085 0l-9.092 3.579-13.992 8.26 8.649-3.549 14.435-8.291z"></path>
<path fill="#aeb1b9" style="fill: var(--color6, #aeb1b9)" d="M6.996 23.605l-3.837-2.208v-4.846l3.837 2.192v4.861z"></path>
<path fill="#aeb1b9" style="fill: var(--color6, #aeb1b9)" d="M13.294 30.508l-3.837-2.535v-7.744l3.837 2.078v8.201z"></path>
<path fill="#aeb1b9" style="fill: var(--color6, #aeb1b9)" d="M19.661 22.57l2.213-1.228v4.899l-2.213 1.279v-4.95z"></path>
<path fill="#aeb1b9" style="fill: var(--color6, #aeb1b9)" d="M22.185 21.171l2.332-1.294v4.838l-2.332 1.347v-4.891z"></path>
<path fill="#aeb1b9" style="fill: var(--color6, #aeb1b9)" d="M27.351 18.306v4.771l-2.524 1.459v-4.831l2.524-1.399z"></path>
<path fill="#c2c2c2" style="fill: var(--color9, #c2c2c2)" d="M26.213 7.368l-12.093 7.116-3.621-5.706 12.097-7.083 3.617 5.673z"></path>
<path fill="#c2c2c2" style="fill: var(--color9, #c2c2c2)" d="M24.136 17.116l-6.119 3.601-3.621-5.706 6.099-3.571 3.641 5.676z"></path>
<path fill="#3d404b" style="fill: var(--color8, #3d404b)" d="M15.133 9.732l-2.686 1.611-1.525-2.456 2.748-1.606 1.463 2.452z"></path>
<path fill="#3d404b" style="fill: var(--color8, #3d404b)" d="M18.106 8.002l-2.687 1.611-1.525-2.455 2.748-1.607 1.464 2.452z"></path>
<path fill="#3d404b" style="fill: var(--color8, #3d404b)" d="M19.797 10.667l-2.686 1.611-1.525-2.456 2.748-1.606 1.463 2.452z"></path>
<path fill="#3d404b" style="fill: var(--color8, #3d404b)" d="M21.058 6.34l-2.687 1.611-1.525-2.455 2.749-1.607 1.463 2.452z"></path>
<path fill="#3d404b" style="fill: var(--color8, #3d404b)" d="M24.010 4.641l-2.686 1.611-1.526-2.455 2.749-1.607 1.463 2.452z"></path>
<path fill="#3d404b" style="fill: var(--color8, #3d404b)" d="M22.75 8.958l-2.687 1.611-1.525-2.455 2.749-1.607 1.463 2.452z"></path>
<path fill="#3d404b" style="fill: var(--color8, #3d404b)" d="M25.672 7.214l-2.686 1.611-1.525-2.456 2.748-1.606 1.463 2.452z"></path>
<path fill="#3d404b" style="fill: var(--color8, #3d404b)" d="M16.826 12.416l-2.686 1.61-1.525-2.455 2.748-1.607 1.463 2.453z"></path>
<path fill="#3d404b" style="fill: var(--color8, #3d404b)" d="M19.039 16.028l-2.646 1.677-1.585-2.418 2.709-1.674 1.523 2.414z"></path>
<path fill="#3d404b" style="fill: var(--color8, #3d404b)" d="M21.968 14.226l-2.646 1.676-1.584-2.417 2.709-1.675 1.522 2.416z"></path>
<path fill="#3d404b" style="fill: var(--color8, #3d404b)" d="M23.724 16.847l-2.646 1.677-1.584-2.418 2.709-1.674 1.522 2.414z"></path>
<path fill="#3d404b" style="fill: var(--color8, #3d404b)" d="M20.795 18.67l-2.646 1.676-1.584-2.417 2.709-1.675 1.522 2.416z"></path>
</symbol>


<symbol id="icon-house-11" viewBox="0 0 32 32">
<path fill="#e1e4eb" style="fill: var(--color1, #e1e4eb)" d="M16.147 32l14.435-8.321v-10.438l-14.435 5.637v13.122z"></path>
<path fill="#e52f42" style="fill: var(--color2, #e52f42)" d="M8.649 8.291l14.435-8.291 8.915 13.957-14.376 8.35-8.974-14.017z"></path>
<path fill="#c3c9d6" style="fill: var(--color3, #c3c9d6)" d="M1.298 11.422v11.869l14.849 8.709v-11.512l-7.498-11.869-7.351 2.803z"></path>
<path fill="#a8acb6" style="fill: var(--color4, #a8acb6)" d="M1.191 11.959l0.064 1 7.232-2.803 7.927 12.152 0.649-0.359-8.412-13.062-7.459 3.072z"></path>
<path fill="#c3c9d6" style="fill: var(--color3, #c3c9d6)" d="M0 11.839l0.382 0.797 7.908-3.252 8.682 13.35 0.652-0.426-8.974-14.017z"></path>
<path fill="#b2202f" style="fill: var(--color5, #b2202f)" d="M23.085 0l-9.092 3.579-13.992 8.26 8.649-3.549 14.435-8.291z"></path>
<path fill="#aeb1b9" style="fill: var(--color6, #aeb1b9)" d="M6.996 23.605l-3.837-2.208v-4.846l3.837 2.192v4.861z"></path>
<path fill="#aeb1b9" style="fill: var(--color6, #aeb1b9)" d="M13.294 30.508l-3.837-2.535v-7.744l3.837 2.078v8.201z"></path>
<path fill="#aeb1b9" style="fill: var(--color6, #aeb1b9)" d="M19.661 22.57l2.213-1.228v4.899l-2.213 1.279v-4.95z"></path>
<path fill="#aeb1b9" style="fill: var(--color6, #aeb1b9)" d="M22.185 21.171l2.332-1.294v4.838l-2.332 1.347v-4.891z"></path>
<path fill="#aeb1b9" style="fill: var(--color6, #aeb1b9)" d="M27.351 18.306v4.771l-2.524 1.459v-4.831l2.524-1.399z"></path>
<path fill="#c2c2c2" style="fill: var(--color9, #c2c2c2)" d="M26.213 7.368l-12.093 7.116-3.621-5.706 12.097-7.083 3.617 5.673z"></path>
<path fill="#c2c2c2" style="fill: var(--color9, #c2c2c2)" d="M30.121 13.458l-12.104 7.258-3.621-5.706 12.159-7.119 3.567 5.567z"></path>
<path fill="#3d404b" style="fill: var(--color8, #3d404b)" d="M15.133 9.732l-2.686 1.611-1.525-2.456 2.748-1.606 1.463 2.452z"></path>
<path fill="#3d404b" style="fill: var(--color8, #3d404b)" d="M18.106 8.002l-2.687 1.611-1.525-2.455 2.748-1.607 1.464 2.452z"></path>
<path fill="#3d404b" style="fill: var(--color8, #3d404b)" d="M19.797 10.667l-2.686 1.611-1.525-2.456 2.748-1.606 1.463 2.452z"></path>
<path fill="#3d404b" style="fill: var(--color8, #3d404b)" d="M21.058 6.34l-2.687 1.611-1.525-2.455 2.749-1.607 1.463 2.452z"></path>
<path fill="#3d404b" style="fill: var(--color8, #3d404b)" d="M24.010 4.588l-2.686 1.611-1.526-2.455 2.749-1.607 1.463 2.452z"></path>
<path fill="#3d404b" style="fill: var(--color8, #3d404b)" d="M22.707 8.944l-2.675 1.629-1.541-2.446 2.738-1.626 1.479 2.442z"></path>
<path fill="#3d404b" style="fill: var(--color8, #3d404b)" d="M25.672 7.214l-2.686 1.611-1.525-2.456 2.748-1.606 1.463 2.452z"></path>
<path fill="#3d404b" style="fill: var(--color8, #3d404b)" d="M16.826 12.416l-2.686 1.61-1.525-2.455 2.748-1.607 1.463 2.453z"></path>
<path fill="#3d404b" style="fill: var(--color8, #3d404b)" d="M19.039 16.028l-2.646 1.677-1.585-2.418 2.709-1.674 1.523 2.414z"></path>
<path fill="#3d404b" style="fill: var(--color8, #3d404b)" d="M21.968 14.226l-2.646 1.676-1.584-2.417 2.709-1.675 1.522 2.416z"></path>
<path fill="#3d404b" style="fill: var(--color8, #3d404b)" d="M23.724 16.847l-2.646 1.677-1.584-2.418 2.709-1.674 1.522 2.414z"></path>
<path fill="#3d404b" style="fill: var(--color8, #3d404b)" d="M20.795 18.67l-2.646 1.676-1.584-2.417 2.709-1.675 1.522 2.416z"></path>
<path fill="#3d404b" style="fill: var(--color8, #3d404b)" d="M24.999 12.429l-2.672 1.635-1.548-2.44 2.734-1.634 1.486 2.439z"></path>
<path fill="#3d404b" style="fill: var(--color8, #3d404b)" d="M27.954 10.671l-2.672 1.635-1.548-2.44 2.734-1.634 1.486 2.439z"></path>
<path fill="#3d404b" style="fill: var(--color8, #3d404b)" d="M29.671 13.319l-2.671 1.635-1.548-2.44 2.733-1.634 1.486 2.439z"></path>
<path fill="#3d404b" style="fill: var(--color8, #3d404b)" d="M26.716 15.097l-2.671 1.635-1.548-2.44 2.733-1.634 1.486 2.439z"></path>
</symbol>


<symbol id="icon-house-8" viewBox="0 0 32 32">
<path fill="#e1e4eb" style="fill: var(--color1, #e1e4eb)" d="M16.147 32l14.435-8.321v-10.438l-14.435 5.637v13.122z"></path>
<path fill="#e52f42" style="fill: var(--color2, #e52f42)" d="M8.649 8.291l14.435-8.291 8.915 13.957-14.376 8.35-8.974-14.017z"></path>
<path fill="#c3c9d6" style="fill: var(--color3, #c3c9d6)" d="M1.28 11.376v11.931l14.867 8.694v-11.512l-7.498-11.869-7.369 2.757z"></path>
<path fill="#a8acb6" style="fill: var(--color4, #a8acb6)" d="M1.28 11.931v1.017l6.857-2.775 7.954 11.838v-1.11l-7.442-12.015-7.369 3.044z"></path>
<path fill="#c3c9d6" style="fill: var(--color3, #c3c9d6)" d="M0 11.839l0.382 0.797 7.908-3.252 8.682 13.35 0.652-0.426-8.974-14.017z"></path>
<path fill="#b2202f" style="fill: var(--color5, #b2202f)" d="M23.085 0l-9.092 3.579-13.992 8.26 8.649-3.549 14.435-8.291z"></path>
<path fill="#aeb1b9" style="fill: var(--color6, #aeb1b9)" d="M6.996 23.605l-3.837-2.208v-4.846l3.837 2.192v4.861z"></path>
<path fill="#aeb1b9" style="fill: var(--color6, #aeb1b9)" d="M13.294 30.335l-3.837-2.262v-7.844l3.837 2.078v8.028z"></path>
<path fill="#aeb1b9" style="fill: var(--color6, #aeb1b9)" d="M19.661 22.57l2.213-1.228v4.899l-2.213 1.279v-4.95z"></path>
<path fill="#aeb1b9" style="fill: var(--color6, #aeb1b9)" d="M22.185 21.171l2.332-1.294v4.838l-2.332 1.347v-4.891z"></path>
<path fill="#aeb1b9" style="fill: var(--color6, #aeb1b9)" d="M27.351 18.306v4.771l-2.524 1.459v-4.831l2.524-1.399z"></path>
<path fill="#c2c2c2" style="fill: var(--color9, #c2c2c2)" d="M20.248 10.878l-6.128 3.606-3.621-5.706 6.156-3.605 3.593 5.705z"></path>
<path fill="#3d404b" style="fill: var(--color8, #3d404b)" d="M15.133 9.732l-2.686 1.611-1.525-2.456 2.748-1.606 1.463 2.452z"></path>
<path fill="#3d404b" style="fill: var(--color8, #3d404b)" d="M18.106 8.002l-2.687 1.611-1.525-2.455 2.748-1.607 1.464 2.452z"></path>
<path fill="#3d404b" style="fill: var(--color8, #3d404b)" d="M19.797 10.667l-2.686 1.611-1.525-2.456 2.748-1.606 1.463 2.452z"></path>
<path fill="#3d404b" style="fill: var(--color8, #3d404b)" d="M16.826 12.416l-2.686 1.61-1.525-2.455 2.748-1.607 1.463 2.453z"></path>
</symbol>

<symbol id="icon-line" viewBox="0 0 816 32"><path fill="none" stroke="#cbcbd4" stroke-linecap="round" stroke-width="16" d="M8 16h800" style="stroke:var(--color10, #cbcbd4)"/></symbol>

</defs></svg>