<svg xmlns="http://www.w3.org/2000/svg" aria-hidden="true" style="position:absolute;width:0;height:0;overflow:hidden"><defs>

<symbol id="icon-burger" viewBox="0 0 48 32"><path stroke-linecap="round" stroke-width="4.571" d="M4.362 2.286h41.143M4.362 16h41.143M4.362 29.714h41.143"/></symbol>



<symbol id="icon-step-3" viewBox="0 0 33 32">
<path fill="none" stroke="#0b0b0c" style="stroke: var(--color1, #0b0b0c)" stroke-linejoin="miter" stroke-linecap="butt" stroke-miterlimit="4" stroke-width="1.5238" d="M31.619 16c0 8.416-6.822 15.238-15.238 15.238s-15.238-6.822-15.238-15.238c0-8.416 6.822-15.238 15.238-15.238s15.238 6.822 15.238 15.238z"></path>
<path d="M21.258 11.074c-0.098-0.064-0.207-0.107-0.322-0.128s-0.233-0.020-0.347 0.005c-0.114 0.024-0.222 0.071-0.319 0.137s-0.178 0.151-0.242 0.249l-4.981 7.677-2.429-2.246c-0.086-0.079-0.186-0.141-0.296-0.181s-0.226-0.059-0.343-0.054c-0.236 0.009-0.458 0.112-0.618 0.285s-0.245 0.403-0.236 0.638c0.009 0.236 0.112 0.458 0.285 0.618l3.189 2.949c0 0 0.092 0.079 0.134 0.106 0.098 0.064 0.207 0.107 0.322 0.128s0.233 0.020 0.347-0.005c0.114-0.024 0.222-0.071 0.319-0.137s0.178-0.151 0.242-0.249l5.555-8.562c0.064-0.098 0.107-0.207 0.128-0.322s0.020-0.233-0.005-0.347c-0.024-0.114-0.071-0.222-0.137-0.319s-0.151-0.178-0.249-0.242z"></path>
</symbol>


<symbol id="icon-step-2" viewBox="0 0 33 32">
<path fill="none" stroke="#0b0b0c" style="stroke: var(--color1, #0b0b0c)" stroke-linejoin="miter" stroke-linecap="butt" stroke-miterlimit="4" stroke-width="1.5238" d="M31.619 16c0 8.416-6.822 15.238-15.238 15.238s-15.238-6.822-15.238-15.238c0-8.416 6.822-15.238 15.238-15.238s15.238 6.822 15.238 15.238z"></path>
<path d="M13.257 19.81v-1.243l3.084-2.462c0.52-0.414 0.89-0.792 1.109-1.134s0.329-0.687 0.329-1.036c0-0.382-0.142-0.691-0.427-0.926-0.276-0.236-0.61-0.354-1-0.354-0.756 0-1.463 0.394-2.121 1.182l-0.987-0.914c0.829-1.089 1.881-1.634 3.157-1.634 0.837 0 1.532 0.244 2.085 0.731 0.561 0.488 0.841 1.113 0.841 1.877 0 0.561-0.15 1.085-0.451 1.573-0.293 0.479-0.792 0.991-1.499 1.536l-1.755 1.414h3.791v1.39h-6.156z"></path>
</symbol>

<symbol id="icon-step-1" viewBox="0 0 33 32">
<path fill="#e52f42" style="fill: var(--color2, #e52f42)" d="M32.381 16c0 8.837-7.163 16-16 16s-16-7.163-16-16c0-8.837 7.163-16 16-16s16 7.163 16 16z"></path>
<path fill="#fff" style="fill: var(--color3, #fff)" d="M15.5 19.81v-6.619l-1.438 0.914-0.622-1.073 2.353-1.597h1.219v8.375h-1.512z"></path>
</symbol>

<symbol id="icon-house-1" viewBox="0 0 35 32"><path fill="#e1e4eb" d="m19.115 31.08 13.202-7.606v-9.609l-6.601-1.24-6.601 8.847v9.609z" style="fill:var(--color4, #e1e4eb)"/><path fill="#c3c9d6" d="M19.116 31.08 1.619 20.951v-8.326l17.497 8.847v9.609z" style="fill:var(--color5, #c3c9d6)"/><path fill="#b2202f" d="M18.326 22.598.623 12.823v-.908L8.179 1.894l7.689 1.494 17.295 10.236.025.401-7.308-1.372-7.554 9.944z" style="fill:var(--color6, #b2202f)"/><path fill="#e52f42" d="m25.465 11.93-7.266 9.642L.622 11.93 8.176 1.895 25.464 11.93z" style="fill:var(--color2, #e52f42)"/><path fill="#333" d="m10.306 25.98-6.342-3.672v-4.881l6.342 3.584v4.969zM12.513 22.192l2.333 1.214v5.203l-2.333-1.345v-5.071z" style="fill:var(--color7, #333)"/><path fill="#aeb1b9" d="M25.578 19.039v3.61l-2.18 1.237v-3.55l2.18-1.297zM28.738 20.856l-2.152 1.221v-3.638l2.146-1.276.006 3.693z" style="fill:var(--color8, #aeb1b9)"/></symbol>

<symbol id="icon-house-2" viewBox="0 0 38 32"><path fill="#c3c9d6" d="m28.519 20.552-10.418-6.035v-8.92l10.418 6.035v8.92z" style="fill:var(--color5, #c3c9d6)"/><path fill="#e1e4eb" d="m33.559 17.12-5.041 3.433v-8.92l4.967-4.413.074 9.901z" style="fill:var(--color4, #e1e4eb)"/><path fill="#e1e4eb" d="m34.128 18.19-4.368 2.517.042-2.377 4.326-6.464v6.323z" style="fill:var(--color4, #e1e4eb)"/><path fill="#aeb1b9" d="m34.128 11.867-.693-.312-4.321 6.345.688.431 4.326-6.464z" style="fill:var(--color8, #aeb1b9)"/><path fill="#c3c9d6" d="m29.114 17.9.688.431-.042 2.377-.646-.473V17.9z" style="fill:var(--color5, #c3c9d6)"/><path fill="#333" d="M33.485 7.219v-.543L23.104.835 18.1 5.206v.391l10.418 6.035 4.967-4.413z" style="fill:var(--color7, #333)"/><path fill="#333" d="m18.1 5.206 10.418 5.996 4.967-4.526L23.104.835 18.1 5.206zM20.183 7.848v2.893l-.959-.557v-2.89l.959.554zM21.578 8.654v2.897l-.986-.573V8.084l.986.569zM22.974 9.46v2.902l-.986-.573V8.89l.986.569zM24.351 10.257v2.905l-.968-.563V9.696l.968.561zM25.69 11.03v2.91l-.93-.541v-2.906l.93.537zM27.057 11.82v2.914l-.957-.556v-2.911l.957.553zM20.183 11.181v2.892l-.959-.557v-2.889l.959.554zM21.578 11.986v2.899l-.986-.573v-2.895l.986.569zM22.974 12.792v2.903l-.986-.574v-2.898l.986.569zM24.351 13.589v2.906l-.968-.564v-2.902l.968.56zM25.69 14.362v2.91l-.93-.541v-2.905l.93.536zM27.057 15.152v2.915l-.957-.557v-2.911l.957.553z" style="fill:var(--color7, #333)"/><path fill="#e1e4eb" d="m12.165 30 13.562-7.991v-4.71l-6.781 1.357-6.781 6.541v4.802z" style="fill:var(--color4, #e1e4eb)"/><path fill="#c3c9d6" d="M12.165 25.198 1.858 19.355v4.804L12.165 30v-4.802z" style="fill:var(--color5, #c3c9d6)"/><path fill="#333" d="m1.859 19.355 10.307 5.843 6.781-6.541 6.781-1.357v-.443l-10.324-5.828-6.846 1.338-6.698 6.319v.669z" style="fill:var(--color7, #333)"/><path fill="#e52f42" d="m1.859 18.685 10.307 5.908 6.584-6.307-10.193-5.92-6.698 6.319z" style="fill:var(--color2, #e52f42)"/><path fill="#c62233" d="m8.556 12.367 6.846-1.338 10.324 5.828-6.978 1.43-10.193-5.92z" style="fill:var(--color9, #c62233)"/><path fill="#333" d="M12.912 25.439v.453l1.097-.644-.004-.458-1.093.648zM12.958 27.004v.453l1.098-.644-.005-.458-1.093.648zM14.298 26.182v.452l1.097-.644-.004-.458-1.093.649zM14.288 24.635v.452l1.098-.643-.005-.458-1.093.648zM15.669 23.805v.452l1.098-.643-.005-.458-1.093.648zM17.053 23.004v.452l1.098-.644-.005-.458-1.093.649zM18.437 22.164v.453l1.05-.596-.008-.454-1.043.597zM19.769 21.412v.452l1.05-.595-.007-.455-1.044.598zM21.174 20.563v.452l1.05-.595-.007-.455-1.044.598zM22.551 19.776v.453l1.05-.596-.008-.454-1.043.597zM23.884 19.012v.453l1.05-.595-.008-.455-1.043.597zM19.814 22.871v.453l1.05-.596-.008-.454-1.043.597zM21.126 22.164v.453l1.05-.596-.008-.454-1.043.597zM22.502 21.412v.452l1.05-.595-.007-.455-1.044.598zM23.832 20.61v.453l1.05-.596-.007-.454-1.044.597zM15.665 25.38v.453l1.097-.644-.004-.458-1.093.648zM17.051 24.598v.452l1.097-.643-.004-.458-1.093.648zM18.437 23.749v.452l1.097-.643-.004-.458-1.093.648zM2.657 24.611l1.974 1.119.022-1.366-1.996-1v1.248zM5.482 26.212l1.977 1.121.049-1.512-2.026-1.018v1.409zM8.349 27.837l.848.481v-1.117l-.848-.422v1.058z" style="fill:var(--color7, #333)"/><path fill="#c3c9d6" d="m24.207 22.009 6.279 3.677v1.654l-6.279-4.016v-1.315zM18.653 25.333v1.654l6.306 3.664v-1.754l-6.306-3.564z" style="fill:var(--color5, #c3c9d6)"/><path fill="#e1e4eb" d="m24.96 30.637 4.66-2.659v-1.67l-2.33.311-2.33 2.264v1.754z" style="fill:var(--color4, #e1e4eb)"/><path fill="#c62233" d="m21.025 23.055 2.161-.504 6.434 3.772-2.33.311-6.265-3.579z" style="fill:var(--color9, #c62233)"/><path fill="#e52f42" d="m18.653 25.333 2.372-2.278 6.265 3.579-2.33 2.264-6.306-3.564z" style="fill:var(--color2, #e52f42)"/><path fill="#e1e4eb" d="m30.486 27.341 4.688-2.588v-1.697l-2.345.269-2.343 2.362v1.654z" style="fill:var(--color4, #e1e4eb)"/><path fill="#e52f42" d="m24.207 22.009 6.279 3.677 2.343-2.362-6.292-3.621-2.33 2.306z" style="fill:var(--color2, #e52f42)"/><path fill="#c62233" d="m26.537 19.704 2.25-.349 6.386 3.701-2.345.269-6.292-3.621z" style="fill:var(--color9, #c62233)"/><path fill="#333" d="m26.651 29.673 1.8-1.036v-1.089l-1.8.976v1.149zM32.261 25.262l1.867-1.104v1.172l-1.867 1.03v-1.099z" style="fill:var(--color7, #333)"/></symbol>

<symbol id="icon-house-5" viewBox="0 0 35 32">
<path fill="#e1e4eb" style="fill: var(--color1, #e1e4eb)" d="M19.901 29.089l11.33-6.564v-8.291l-5.665-1.070-5.665 7.634v8.291z"></path>
<path fill="#c3c9d6" style="fill: var(--color2, #c3c9d6)" d="M19.901 29.089l-15.016-8.74v-7.184l15.016 7.634v8.291z"></path>
<path fill="#b3202f" style="fill: var(--color3, #b3202f)" d="M19.224 21.771l-15.193-8.435v-0.783l6.484-8.647 6.599 1.289 14.842 8.832 0.021 0.346-6.272-1.184-6.483 8.581z"></path>
<path fill="#e52f42" style="fill: var(--color4, #e52f42)" d="M25.351 12.565l-6.236 8.32-15.084-8.32 6.483-8.659 14.837 8.659z"></path>
<path fill="#aeb1b9" style="fill: var(--color5, #aeb1b9)" d="M12.341 24.689l-5.443-3.169v-4.212l5.443 3.093v4.288z"></path>
<path fill="#aeb1b9" style="fill: var(--color5, #aeb1b9)" d="M14.235 21.42l2.002 1.047v4.489l-2.002-1.161v-4.376z"></path>
<path fill="#aeb1b9" style="fill: var(--color5, #aeb1b9)" d="M25.447 18.699v3.115l-1.871 1.068v-3.063l1.871-1.119z"></path>
<path fill="#aeb1b9" style="fill: var(--color5, #aeb1b9)" d="M28.159 20.268l-1.847 1.054v-3.139l1.842-1.101 0.005 3.186z"></path>
</symbol>


<symbol id="icon-house-6" viewBox="0 0 35 32">
<path fill="#e52f42" style="fill: var(--color4, #e52f42)" d="M0.912 14.394l17.465-10.049-3.784 15.367-13.681-5.317z"></path>
<path fill="#be2031" style="fill: var(--color6, #be2031)" d="M18.377 4.345l-3.784 15.367 19.551-7.171-15.767-8.196z"></path>
<path fill="#c3c9d6" style="fill: var(--color2, #c3c9d6)" d="M2.771 15.37v6.732l11.822 5.399v-7.643l-11.822-4.488z"></path>
<path fill="#e1e4eb" style="fill: var(--color1, #e1e4eb)" d="M14.593 19.858l18.46-6.536v6.536l-18.46 7.643v-7.643z"></path>
<path fill="#892b35" style="fill: var(--color7, #892b35)" d="M34.145 12.541v0.837l-19.697 7.228-13.536-5.35v-0.862l13.681 5.317 19.552-7.171z"></path>
<path fill="#aeb1b9" style="fill: var(--color5, #aeb1b9)" d="M9.485 25.187l-3.005-1.372v-4.032l3.071 1.145-0.066 4.259z"></path>
<path fill="#aeb1b9" style="fill: var(--color5, #aeb1b9)" d="M18.79 20.103l3.602-1.29v3.421l-3.602 1.348v-3.479z"></path>
<path fill="#aeb1b9" style="fill: var(--color5, #aeb1b9)" d="M26.722 17.261v3.351l-3.19 1.194v-3.403l3.19-1.143z"></path>
</symbol>


<symbol id="icon-house-7" viewBox="0 0 35 32">
<path fill="#c62f3f" style="fill: var(--color8, #c62f3f)" d="M18.234 22.302l-1.486-0.824 2.013-0.288 1.486 0.824-2.013 0.288z"></path>
<path fill="#c62f3f" style="fill: var(--color8, #c62f3f)" d="M16.22 22.591l-1.486-0.824 2.013-0.288 1.486 0.824-2.013 0.288z"></path>
<path fill="#621d24" style="fill: var(--color9, #621d24)" d="M18.225 26.795l-1.486-0.824-2.005-4.204 1.486 0.824 2.005 4.204z"></path>
<path fill="#c62f3f" style="fill: var(--color8, #c62f3f)" d="M20.247 22.014l-2.021 4.781-2.005-4.204 4.027-0.577z"></path>
<path fill="#be2031" style="fill: var(--color6, #be2031)" d="M27.855 4.691l-1.486-0.824c0.148-0.022 0.299-0.014 0.443 0.023l1.486 0.824c-0.145-0.037-0.296-0.045-0.443-0.023z"></path>
<path fill="#be2031" style="fill: var(--color6, #be2031)" d="M28.298 4.714l-1.486-0.824c0.071 0.019 0.139 0.044 0.204 0.077l1.486 0.824c-0.065-0.033-0.134-0.059-0.205-0.077z"></path>
<path fill="#be2031" style="fill: var(--color6, #be2031)" d="M28.503 4.791l-1.486-0.824c0.013 0.007 0.027 0.014 0.040 0.021l1.486 0.824c-0.013-0.007-0.026-0.014-0.040-0.021z"></path>
<path fill="#0f6034" style="fill: var(--color10, #0f6034)" d="M18.958 19.028l-1.486-0.824 0.003-1.881 1.486 0.824-0.003 1.881z"></path>
<path fill="#be2031" style="fill: var(--color6, #be2031)" d="M17.41 19.25l-1.486-0.824 1.548-0.222 1.486 0.824-1.548 0.222z"></path>
<path fill="#892b35" style="fill: var(--color7, #892b35)" d="M18.962 16.502l-1.486-0.824c-0.007-0.488 0.029-0.841 0.107-1.057l1.486 0.824c-0.078 0.217-0.114 0.569-0.107 1.057z"></path>
<path fill="#be2031" style="fill: var(--color6, #be2031)" d="M19.070 15.444l-1.486-0.824c0.004-0.012 0.009-0.024 0.014-0.035 0.012-0.028 0.026-0.058 0.042-0.090l1.486 0.824c-0.017 0.031-0.031 0.061-0.043 0.090-0.005 0.011-0.009 0.023-0.014 0.035z"></path>
<path fill="#be2031" style="fill: var(--color6, #be2031)" d="M19.126 15.319l-1.486-0.824c0.034-0.063 0.071-0.124 0.112-0.183l1.486 0.824c-0.041 0.059-0.078 0.12-0.112 0.183z"></path>
<path fill="#be2031" style="fill: var(--color6, #be2031)" d="M19.238 15.136l-1.486-0.824c0.073-0.105 0.165-0.223 0.278-0.354l1.486 0.824c-0.113 0.13-0.206 0.248-0.278 0.354z"></path>
<path fill="#be2031" style="fill: var(--color6, #be2031)" d="M19.516 14.783l-1.486-0.824c0.072-0.083 0.153-0.172 0.242-0.265 0.22-0.232 0.416-0.446 0.588-0.645l1.486 0.824c-0.172 0.198-0.368 0.413-0.588 0.645-0.089 0.094-0.169 0.182-0.242 0.265z"></path>
<path fill="#be2031" style="fill: var(--color6, #be2031)" d="M20.346 13.873l-1.486-0.824c0.242-0.279 0.436-0.526 0.583-0.739l1.486 0.824c-0.147 0.213-0.341 0.46-0.583 0.739z"></path>
<path fill="#be2031" style="fill: var(--color6, #be2031)" d="M20.929 13.134l-1.486-0.824c0.072-0.104 0.139-0.211 0.199-0.322l1.486 0.824c-0.061 0.111-0.127 0.219-0.199 0.322z"></path>
<path fill="#828282" style="fill: var(--color11, #828282)" d="M17.41 19.25l-1.486-0.824 0.003-1.881 1.486 0.824-0.003 1.881z"></path>
<path fill="#b4b4b4" style="fill: var(--color12, #b4b4b4)" d="M17.413 17.369l-1.486-0.824 1.548-0.222 1.486 0.824-1.548 0.222z"></path>
<path fill="#be2031" style="fill: var(--color6, #be2031)" d="M17.414 16.723l-1.486-0.824 1.548-0.222 1.486 0.824-1.548 0.222z"></path>
<path fill="#be2031" style="fill: var(--color6, #be2031)" d="M21.128 12.811l-1.486-0.824c0.002-0.004 0.005-0.009 0.007-0.013l1.486 0.824-0.007 0.013z"></path>
<path fill="#be2031" style="fill: var(--color6, #be2031)" d="M21.136 12.798l-1.486-0.824c0.063-0.12 0.119-0.244 0.165-0.371l1.486 0.824c-0.046 0.128-0.101 0.252-0.165 0.371z"></path>
<path fill="#892b35" style="fill: var(--color7, #892b35)" d="M21.3 12.427l-1.486-0.824c0.1-0.276 0.15-0.555 0.15-0.837 0.001-0.748-0.287-1.362-0.866-1.842-0.109-0.091-0.226-0.171-0.35-0.239l1.486 0.824c0.124 0.068 0.241 0.148 0.35 0.239 0.579 0.48 0.867 1.094 0.866 1.842-0 0.282-0.051 0.561-0.15 0.837z"></path>
<path fill="#892b35" style="fill: var(--color7, #892b35)" d="M21.3 12.427l-1.486-0.824c0.1-0.276 0.15-0.555 0.15-0.837 0.001-0.748-0.287-1.362-0.866-1.842-0.109-0.091-0.226-0.171-0.35-0.239l1.486 0.824c0.124 0.068 0.241 0.149 0.35 0.239 0.579 0.48 0.867 1.094 0.866 1.842-0 0.282-0.051 0.561-0.15 0.837z"></path>
<path fill="#858585" style="fill: var(--color13, #858585)" d="M17.414 16.724l-1.486-0.824c-0.004-0.244-0.006-0.393-0.006-0.447 0.001-0.479 0.064-0.893 0.19-1.243l1.486 0.824c-0.126 0.35-0.189 0.764-0.19 1.243 0 0.054 0.002 0.203 0.006 0.447z"></path>
<path fill="#8a8a8a" style="fill: var(--color14, #8a8a8a)" d="M17.599 15.034l-1.486-0.824c0.019-0.053 0.040-0.105 0.062-0.156 0.021-0.049 0.045-0.098 0.072-0.149l1.486 0.824c-0.027 0.051-0.051 0.1-0.072 0.149-0.022 0.050-0.043 0.102-0.062 0.156z"></path>
<path fill="#8f8f8f" style="fill: var(--color15, #8f8f8f)" d="M17.733 14.729l-1.486-0.824c0.061-0.115 0.129-0.226 0.203-0.332l1.486 0.824c-0.074 0.107-0.142 0.217-0.203 0.332z"></path>
<path fill="#949494" style="fill: var(--color16, #949494)" d="M17.937 14.397l-1.486-0.824c0.108-0.156 0.236-0.321 0.387-0.494l1.486 0.824c-0.151 0.174-0.279 0.339-0.387 0.495z"></path>
<path fill="#999" style="fill: var(--color17, #999)" d="M18.324 13.902l-1.486-0.824c0.104-0.119 0.217-0.243 0.341-0.371 0.306-0.315 0.536-0.563 0.692-0.743l1.486 0.824c-0.156 0.18-0.386 0.427-0.692 0.743-0.124 0.128-0.238 0.251-0.341 0.371z"></path>
<path fill="#949494" style="fill: var(--color16, #949494)" d="M19.357 12.789l-1.486-0.824c0.088-0.102 0.152-0.181 0.192-0.24l1.486 0.824c-0.040 0.058-0.104 0.138-0.192 0.24z"></path>
<path fill="#8f8f8f" style="fill: var(--color15, #8f8f8f)" d="M19.549 12.549l-1.486-0.824c0.005-0.008 0.010-0.015 0.014-0.022 0.023-0.036 0.043-0.072 0.063-0.108l1.486 0.824c-0.019 0.036-0.040 0.073-0.063 0.108-0.004 0.007-0.009 0.014-0.014 0.022z"></path>
<path fill="#8a8a8a" style="fill: var(--color14, #8a8a8a)" d="M19.626 12.419l-1.486-0.824c0.032-0.061 0.060-0.124 0.084-0.189l1.486 0.824c-0.024 0.065-0.052 0.128-0.084 0.189z"></path>
<path fill="#858585" style="fill: var(--color13, #858585)" d="M19.71 12.23l-1.486-0.824c0.053-0.146 0.080-0.301 0.081-0.456 0.001-0.363-0.132-0.655-0.397-0.877-0.050-0.042-0.104-0.079-0.161-0.111l1.486 0.824c0.057 0.032 0.111 0.069 0.161 0.111 0.266 0.221 0.398 0.513 0.397 0.877-0 0.156-0.027 0.31-0.081 0.456z"></path>
<path fill="#892b35" style="fill: var(--color7, #892b35)" d="M16.622 12.552l-1.486-0.824c0.035-0.186 0.085-0.37 0.148-0.548l1.486 0.824c-0.063 0.179-0.113 0.362-0.148 0.548z"></path>
<path fill="#be2031" style="fill: var(--color6, #be2031)" d="M16.77 12.004l-1.486-0.824c0.042-0.117 0.092-0.231 0.149-0.341l1.486 0.824c-0.058 0.11-0.108 0.224-0.149 0.341z"></path>
<path fill="#be2031" style="fill: var(--color6, #be2031)" d="M16.92 11.663l-1.486-0.824c0.040-0.075 0.084-0.148 0.132-0.218l1.486 0.824c-0.048 0.070-0.092 0.143-0.132 0.218z"></path>
<path fill="#be2031" style="fill: var(--color6, #be2031)" d="M17.052 11.445l-1.486-0.824c0.040-0.059 0.084-0.115 0.131-0.169l1.486 0.824c-0.047 0.054-0.090 0.11-0.131 0.169z"></path>
<path fill="#be2031" style="fill: var(--color6, #be2031)" d="M17.182 11.276l-1.486-0.824c0.015-0.017 0.030-0.034 0.046-0.051 0.034-0.036 0.069-0.071 0.105-0.104l1.486 0.823c-0.036 0.033-0.071 0.068-0.105 0.104-0.015 0.016-0.031 0.033-0.046 0.051z"></path>
<path fill="#be2031" style="fill: var(--color6, #be2031)" d="M17.333 11.121l-1.486-0.824c0.057-0.053 0.118-0.102 0.181-0.146l1.486 0.824c-0.063 0.045-0.124 0.094-0.181 0.146z"></path>
<path fill="#be2031" style="fill: var(--color6, #be2031)" d="M17.514 10.975l-1.486-0.824c0.079-0.056 0.163-0.105 0.251-0.147l1.486 0.824c-0.087 0.042-0.171 0.091-0.251 0.147z"></path>
<path fill="#be2031" style="fill: var(--color6, #be2031)" d="M17.765 10.828l-1.486-0.824c0.17-0.082 0.354-0.136 0.554-0.165 0.248-0.035 0.467-0.028 0.659 0.023l1.486 0.824c-0.192-0.051-0.411-0.058-0.659-0.023-0.2 0.029-0.384 0.084-0.554 0.165z"></path>
<path fill="#be2031" style="fill: var(--color6, #be2031)" d="M18.978 10.685l-1.486-0.824c0.074 0.019 0.146 0.047 0.215 0.081l1.486 0.824c-0.069-0.034-0.141-0.061-0.215-0.081z"></path>
<path fill="#be2031" style="fill: var(--color6, #be2031)" d="M19.193 10.766l-1.486-0.824c0.013 0.007 0.026 0.013 0.039 0.020l1.486 0.824c-0.013-0.007-0.026-0.014-0.039-0.020z"></path>
<path fill="#158347" style="fill: var(--color18, #158347)" d="M15.054 12.566l-1.486-0.824 1.568-0.013 1.486 0.824-1.568 0.013z"></path>
<path fill="#fff" style="fill: var(--color19, #fff)" d="M20.585 9.747c0.579 0.48 0.867 1.094 0.866 1.842-0.001 0.414-0.108 0.822-0.322 1.222s-0.671 0.969-1.371 1.706c-0.362 0.382-0.587 0.679-0.675 0.892s-0.128 0.577-0.121 1.093l-1.548 0.222c-0.004-0.244-0.006-0.393-0.006-0.447 0.001-0.552 0.085-1.019 0.253-1.399s0.502-0.829 1.003-1.346c0.501-0.517 0.801-0.852 0.899-1.004 0.151-0.24 0.227-0.491 0.227-0.754 0.001-0.363-0.132-0.655-0.397-0.877s-0.624-0.299-1.075-0.235c-0.434 0.062-0.798 0.25-1.091 0.563s-0.495 0.755-0.605 1.327l-1.568 0.014c0.046-0.805 0.356-1.528 0.931-2.168s1.328-1.027 2.26-1.16c0.981-0.141 1.761 0.029 2.339 0.509z"></path>
<path fill="#858585" style="fill: var(--color13, #858585)" d="M15.054 12.566l-1.486-0.824c0.018-0.328 0.083-0.652 0.194-0.961l1.486 0.824c-0.111 0.309-0.176 0.633-0.194 0.961z"></path>
<path fill="#8a8a8a" style="fill: var(--color14, #8a8a8a)" d="M15.248 11.605l-1.486-0.824c0.054-0.149 0.118-0.293 0.191-0.432l1.486 0.824c-0.074 0.139-0.138 0.284-0.191 0.432z"></path>
<path fill="#8f8f8f" style="fill: var(--color15, #8f8f8f)" d="M15.44 11.172l-1.486-0.824c0.066-0.126 0.14-0.247 0.22-0.364l1.486 0.824c-0.080 0.117-0.154 0.238-0.22 0.364z"></path>
<path fill="#949494" style="fill: var(--color16, #949494)" d="M15.66 10.809l-1.486-0.824c0.085-0.123 0.177-0.242 0.275-0.354l1.486 0.824c-0.098 0.113-0.19 0.231-0.275 0.354z"></path>
<path fill="#999" style="fill: var(--color17, #999)" d="M15.935 10.455l-1.486-0.824c0.016-0.019 0.033-0.038 0.050-0.057 0.078-0.087 0.159-0.169 0.243-0.246l1.486 0.824c-0.084 0.077-0.165 0.159-0.243 0.246-0.017 0.019-0.034 0.038-0.050 0.057z"></path>
<path fill="#9e9e9e" style="fill: var(--color20, #9e9e9e)" d="M16.228 10.152l-1.486-0.824c0.108-0.099 0.223-0.191 0.342-0.276l1.486 0.824c-0.12 0.084-0.234 0.177-0.342 0.276z"></path>
<path fill="#a3a3a3" style="fill: var(--color21, #a3a3a3)" d="M16.57 9.876l-1.486-0.824c0.157-0.11 0.322-0.207 0.495-0.29l1.486 0.824c-0.173 0.083-0.338 0.18-0.495 0.29z"></path>
<path fill="#a8a8a8" style="fill: var(--color22, #a8a8a8)" d="M17.065 9.586l-1.486-0.824c0.355-0.17 0.748-0.287 1.18-0.348 0.54-0.077 1.018-0.061 1.436 0.050l1.486 0.824c-0.418-0.111-0.897-0.127-1.436-0.050-0.432 0.062-0.825 0.178-1.18 0.348z"></path>
<path fill="#a3a3a3" style="fill: var(--color21, #a3a3a3)" d="M19.681 9.288l-1.486-0.824c0.162 0.042 0.319 0.101 0.469 0.176l1.486 0.824c-0.15-0.075-0.307-0.134-0.469-0.176z"></path>
<path fill="#9e9e9e" style="fill: var(--color20, #9e9e9e)" d="M20.151 9.464l-1.486-0.824c0.028 0.014 0.057 0.029 0.084 0.045l1.486 0.824c-0.028-0.015-0.056-0.030-0.084-0.044z"></path>
<path fill="#e52f42" style="fill: var(--color4, #e52f42)" d="M27.855 4.691c0.711-0.102 1.291 0.454 1.289 1.236l-0.024 13.396c-0.001 0.782-0.584 1.504-1.295 1.606l-19.183 2.747c-0.711 0.102-1.291-0.454-1.29-1.236l0.024-13.396c0.001-0.781 0.584-1.504 1.295-1.606l19.183-2.747zM21.128 12.811c0.214-0.4 0.321-0.808 0.322-1.222 0.001-0.748-0.287-1.362-0.866-1.842s-1.358-0.65-2.339-0.51c-0.932 0.133-1.686 0.52-2.26 1.16s-0.885 1.363-0.931 2.168l1.568-0.013c0.111-0.572 0.312-1.014 0.605-1.327s0.657-0.501 1.091-0.563c0.451-0.065 0.809 0.014 1.075 0.235s0.398 0.513 0.397 0.876c-0 0.263-0.076 0.514-0.227 0.754-0.098 0.152-0.398 0.487-0.899 1.004s-0.836 0.966-1.003 1.346c-0.167 0.38-0.252 0.847-0.253 1.399 0 0.054 0.002 0.202 0.006 0.447l1.548-0.222c-0.007-0.516 0.033-0.88 0.121-1.093s0.313-0.51 0.675-0.892c0.7-0.737 1.157-1.305 1.37-1.706zM18.958 19.028l0.003-1.881-1.548 0.222-0.003 1.881 1.548-0.222z"></path>
<path fill="#fff" style="fill: var(--color19, #fff)" d="M17.41 19.25l0.003-1.881 1.548-0.222-0.003 1.881-1.548 0.222z"></path>
<path fill="#892b35" style="fill: var(--color7, #892b35)" d="M7.955 23.555l-1.486-0.824c-0.362-0.201-0.603-0.611-0.602-1.115l1.486 0.824c-0.001 0.504 0.24 0.914 0.602 1.115z"></path>
<path fill="#be2031" style="fill: var(--color6, #be2031)" d="M8.672 7.438l-1.486-0.824 19.183-2.747 1.486 0.824-19.183 2.747z"></path>
<path fill="#b52030" style="fill: var(--color23, #b52030)" d="M7.353 22.44l-1.486-0.824 0.024-13.396 1.486 0.824-0.024 13.396z"></path>
<path fill="#be2031" style="fill: var(--color6, #be2031)" d="M7.377 9.044l-1.486-0.824c0.001-0.19 0.034-0.378 0.099-0.555l1.486 0.824c-0.065 0.178-0.098 0.366-0.099 0.555z"></path>
<path fill="#be2031" style="fill: var(--color6, #be2031)" d="M7.476 8.489l-1.486-0.824c0.028-0.076 0.060-0.151 0.098-0.222l1.486 0.824c-0.038 0.072-0.071 0.146-0.098 0.222z"></path>
<path fill="#be2031" style="fill: var(--color6, #be2031)" d="M7.574 8.266l-1.486-0.824c0.032-0.060 0.067-0.119 0.106-0.175l1.486 0.824c-0.039 0.056-0.074 0.115-0.106 0.175z"></path>
<path fill="#be2031" style="fill: var(--color6, #be2031)" d="M7.68 8.091l-1.486-0.824c0.036-0.053 0.075-0.103 0.117-0.152l1.486 0.824c-0.042 0.048-0.081 0.099-0.117 0.152z"></path>
<path fill="#be2031" style="fill: var(--color6, #be2031)" d="M7.797 7.94l-1.486-0.824c0.042-0.048 0.086-0.094 0.133-0.137l1.486 0.824c-0.047 0.043-0.091 0.088-0.133 0.137z"></path>
<path fill="#be2031" style="fill: var(--color6, #be2031)" d="M7.93 7.803l-1.486-0.824c0.050-0.046 0.102-0.088 0.157-0.127l1.486 0.824c-0.055 0.039-0.107 0.081-0.157 0.127z"></path>
<path fill="#be2031" style="fill: var(--color6, #be2031)" d="M8.087 7.677l-1.486-0.824c0.066-0.047 0.137-0.088 0.21-0.123l1.486 0.824c-0.073 0.035-0.143 0.076-0.21 0.123z"></path>
<path fill="#be2031" style="fill: var(--color6, #be2031)" d="M8.297 7.553l-1.486-0.824c0.119-0.057 0.245-0.096 0.375-0.115l1.486 0.824c-0.13 0.019-0.256 0.058-0.375 0.115z"></path>
</symbol>


<symbol id="icon-house-3" viewBox="0 0 35 32">
<path fill="#c3c9d6" style="fill: var(--color2, #c3c9d6)" d="M3.87 20.918l10.058 5.852v-11.194l-10.058-5.944v11.286z"></path>
<path fill="#e1e4eb" style="fill: var(--color1, #e1e4eb)" d="M13.928 15.575l2.852-1.688v11.286l-2.852 1.596v-11.194z"></path>
<path fill="#c3c9d6" style="fill: var(--color2, #c3c9d6)" d="M16.78 13.887l7.364 4.58v11.031l-7.364-4.324v-11.286z"></path>
<path fill="#e1e4eb" style="fill: var(--color1, #e1e4eb)" d="M24.144 18.466l7.124-4.41v11.471l-7.124 3.97v-11.031z"></path>
<path fill="#e52f42" style="fill: var(--color4, #e52f42)" d="M3.87 9.631l10.215-6.028 17.182 10.453-7.124 4.41-7.364-4.58-2.852 1.688-10.058-5.944z"></path>
<path fill="#aeb1b9" style="fill: var(--color5, #aeb1b9)" d="M5.576 9.631l8.352 4.927 2.852-1.666 7.364 4.464 5.366-3.469-15.581-9.32-8.352 5.064z"></path>
<path fill="#892b35" style="fill: var(--color7, #892b35)" d="M5.576 9.631l0.55 0.327 7.87-4.779v-0.716l-8.42 5.169z"></path>
<path fill="#b3202f" style="fill: var(--color3, #b3202f)" d="M13.996 4.463l15.513 9.424-0.529 0.342-14.984-9.050v-0.716z"></path>
<path fill="#aeb1b9" style="fill: var(--color5, #aeb1b9)" d="M12.521 25.968l-2.709-1.578v-6.307l2.709 1.619v6.266z"></path>
<path fill="#aeb1b9" style="fill: var(--color5, #aeb1b9)" d="M8.495 20.842l-3.015-1.824v-3.36l3.015 1.768v3.416z"></path>
<path fill="#aeb1b9" style="fill: var(--color5, #aeb1b9)" d="M18.094 18.952l1.706 0.996v5.362l-1.706-1.027v-5.331z"></path>
<path fill="#aeb1b9" style="fill: var(--color5, #aeb1b9)" d="M22.932 21.777v5.419l-1.729-1.042v-5.387l1.729 1.009z"></path>
</symbol>


<symbol id="icon-house-4" viewBox="0 0 35 32">
<path fill="#e1e4eb" style="fill: var(--color1, #e1e4eb)" d="M30.451 23.517l-10.471 5.615v-8.536l10.547-7.867-0.076 10.789z"></path>
<path fill="#c3c9d6" style="fill: var(--color2, #c3c9d6)" d="M19.98 20.595l-16.777-9.061v8.724l16.777 8.873v-8.536z"></path>
<path fill="#892b35" style="fill: var(--color7, #892b35)" d="M2.556 10.374v0.824l17.417 9.397 11.079-8.262v-0.632l-17.639-9.366-10.857 8.039z"></path>
<path fill="#e52f42" style="fill: var(--color4, #e52f42)" d="M2.583 10.374l17.518 9.385 10.955-8.057-17.585-9.341-10.889 8.013z"></path>
<path fill="#aeb1b9" style="fill: var(--color5, #aeb1b9)" d="M22.961 21.474l2.315-1.134v3.412l-2.294 1.246-0.021-3.525z"></path>
<path fill="#aeb1b9" style="fill: var(--color5, #aeb1b9)" d="M28.137 18.94v3.257l-2.163 1.176v-3.374l2.163-1.059z"></path>
<path fill="#aeb1b9" style="fill: var(--color5, #aeb1b9)" d="M11.558 24.678l-6.050-3.201-0.122-6.785 6.172 3.145v6.841z"></path>
<path fill="#aeb1b9" style="fill: var(--color5, #aeb1b9)" d="M16.457 25.108l-2.85-1.535v-3.085l2.85 1.431v3.189z"></path>
</symbol>


<symbol id="icon-house-9" viewBox="0 0 32 32">
<path fill="#e1e4eb" style="fill: var(--color1, #e1e4eb)" d="M16.147 32l14.435-8.321v-10.438l-14.435 5.637v13.122z"></path>
<path fill="#e52f42" style="fill: var(--color2, #e52f42)" d="M8.649 8.291l14.435-8.291 8.915 13.957-14.376 8.35-8.974-14.017z"></path>
<path fill="#c3c9d6" style="fill: var(--color3, #c3c9d6)" d="M1.28 11.44v11.858l14.867 8.701v-11.512l-7.498-11.869-7.369 2.821z"></path>
<path fill="#a8acb6" style="fill: var(--color4, #a8acb6)" d="M1.28 11.809v1.015l6.857-2.768 7.954 11.994v-0.821l-7.533-12.425-7.278 3.006z"></path>
<path fill="#c3c9d6" style="fill: var(--color3, #c3c9d6)" d="M0 11.839l0.382 0.797 7.908-3.252 8.682 13.35 0.652-0.426-8.974-14.017z"></path>
<path fill="#b2202f" style="fill: var(--color5, #b2202f)" d="M23.085 0l-9.092 3.579-13.992 8.26 8.649-3.549 14.435-8.291z"></path>
<path fill="#aeb1b9" style="fill: var(--color6, #aeb1b9)" d="M6.996 23.605l-3.837-2.208v-4.846l3.837 2.192v4.861z"></path>
<path fill="#aeb1b9" style="fill: var(--color6, #aeb1b9)" d="M13.294 30.326l-3.837-2.25v-7.846l3.837 2.078v8.018z"></path>
<path fill="#aeb1b9" style="fill: var(--color6, #aeb1b9)" d="M19.566 22.604l2.194-1.199v4.89l-2.194 1.292v-4.982z"></path>
<path fill="#aeb1b9" style="fill: var(--color6, #aeb1b9)" d="M22.126 21.22l2.377-1.292 0.014 4.787-2.391 1.395v-4.89z"></path>
<path fill="#aeb1b9" style="fill: var(--color6, #aeb1b9)" d="M27.429 18.267v4.775l-2.56 1.499v-4.797l2.56-1.476z"></path>
<path fill="#b1b5bc" style="fill: var(--color7, #b1b5bc)" d="M26.213 7.368l-12.093 7.116-3.621-5.706 12.097-7.083 3.617 5.673z"></path>
<path fill="#3d404b" style="fill: var(--color8, #3d404b)" d="M15.133 9.732l-2.686 1.611-1.525-2.456 2.748-1.606 1.463 2.452z"></path>
<path fill="#3d404b" style="fill: var(--color8, #3d404b)" d="M18.106 8.002l-2.687 1.611-1.525-2.455 2.748-1.607 1.464 2.452z"></path>
<path fill="#3d404b" style="fill: var(--color8, #3d404b)" d="M19.797 10.667l-2.686 1.611-1.525-2.456 2.748-1.606 1.463 2.452z"></path>
<path fill="#3d404b" style="fill: var(--color8, #3d404b)" d="M21.058 6.34l-2.687 1.611-1.525-2.455 2.749-1.607 1.463 2.452z"></path>
<path fill="#3d404b" style="fill: var(--color8, #3d404b)" d="M24.010 4.641l-2.686 1.611-1.526-2.455 2.749-1.607 1.463 2.452z"></path>
<path fill="#3d404b" style="fill: var(--color8, #3d404b)" d="M22.75 8.958l-2.687 1.611-1.525-2.455 2.749-1.607 1.463 2.452z"></path>
<path fill="#3d404b" style="fill: var(--color8, #3d404b)" d="M25.672 7.214l-2.686 1.611-1.525-2.456 2.748-1.606 1.463 2.452z"></path>
<path fill="#3d404b" style="fill: var(--color8, #3d404b)" d="M16.826 12.416l-2.686 1.61-1.525-2.455 2.748-1.607 1.463 2.453z"></path>
</symbol>


<symbol id="icon-house-10" viewBox="0 0 32 32">
<path fill="#e1e4eb" style="fill: var(--color1, #e1e4eb)" d="M16.147 32l14.435-8.321v-10.438l-14.435 5.637v13.122z"></path>
<path fill="#e52f42" style="fill: var(--color2, #e52f42)" d="M8.649 8.291l14.435-8.291 8.915 13.957-14.376 8.35-8.974-14.017z"></path>
<path fill="#c3c9d6" style="fill: var(--color3, #c3c9d6)" d="M1.298 11.422v11.869l14.849 8.709v-11.512l-7.498-11.869-7.351 2.803z"></path>
<path fill="#a8acb6" style="fill: var(--color4, #a8acb6)" d="M1.191 11.959l0.064 1 7.232-2.803 7.927 12.152 0.649-0.359-8.412-13.062-7.459 3.072z"></path>
<path fill="#c3c9d6" style="fill: var(--color3, #c3c9d6)" d="M0 11.839l0.382 0.797 7.908-3.252 8.682 13.35 0.652-0.426-8.974-14.017z"></path>
<path fill="#b2202f" style="fill: var(--color5, #b2202f)" d="M23.085 0l-9.092 3.579-13.992 8.26 8.649-3.549 14.435-8.291z"></path>
<path fill="#aeb1b9" style="fill: var(--color6, #aeb1b9)" d="M6.996 23.605l-3.837-2.208v-4.846l3.837 2.192v4.861z"></path>
<path fill="#aeb1b9" style="fill: var(--color6, #aeb1b9)" d="M13.294 30.508l-3.837-2.535v-7.744l3.837 2.078v8.201z"></path>
<path fill="#aeb1b9" style="fill: var(--color6, #aeb1b9)" d="M19.661 22.57l2.213-1.228v4.899l-2.213 1.279v-4.95z"></path>
<path fill="#aeb1b9" style="fill: var(--color6, #aeb1b9)" d="M22.185 21.171l2.332-1.294v4.838l-2.332 1.347v-4.891z"></path>
<path fill="#aeb1b9" style="fill: var(--color6, #aeb1b9)" d="M27.351 18.306v4.771l-2.524 1.459v-4.831l2.524-1.399z"></path>
<path fill="#c2c2c2" style="fill: var(--color9, #c2c2c2)" d="M26.213 7.368l-12.093 7.116-3.621-5.706 12.097-7.083 3.617 5.673z"></path>
<path fill="#c2c2c2" style="fill: var(--color9, #c2c2c2)" d="M24.136 17.116l-6.119 3.601-3.621-5.706 6.099-3.571 3.641 5.676z"></path>
<path fill="#3d404b" style="fill: var(--color8, #3d404b)" d="M15.133 9.732l-2.686 1.611-1.525-2.456 2.748-1.606 1.463 2.452z"></path>
<path fill="#3d404b" style="fill: var(--color8, #3d404b)" d="M18.106 8.002l-2.687 1.611-1.525-2.455 2.748-1.607 1.464 2.452z"></path>
<path fill="#3d404b" style="fill: var(--color8, #3d404b)" d="M19.797 10.667l-2.686 1.611-1.525-2.456 2.748-1.606 1.463 2.452z"></path>
<path fill="#3d404b" style="fill: var(--color8, #3d404b)" d="M21.058 6.34l-2.687 1.611-1.525-2.455 2.749-1.607 1.463 2.452z"></path>
<path fill="#3d404b" style="fill: var(--color8, #3d404b)" d="M24.010 4.641l-2.686 1.611-1.526-2.455 2.749-1.607 1.463 2.452z"></path>
<path fill="#3d404b" style="fill: var(--color8, #3d404b)" d="M22.75 8.958l-2.687 1.611-1.525-2.455 2.749-1.607 1.463 2.452z"></path>
<path fill="#3d404b" style="fill: var(--color8, #3d404b)" d="M25.672 7.214l-2.686 1.611-1.525-2.456 2.748-1.606 1.463 2.452z"></path>
<path fill="#3d404b" style="fill: var(--color8, #3d404b)" d="M16.826 12.416l-2.686 1.61-1.525-2.455 2.748-1.607 1.463 2.453z"></path>
<path fill="#3d404b" style="fill: var(--color8, #3d404b)" d="M19.039 16.028l-2.646 1.677-1.585-2.418 2.709-1.674 1.523 2.414z"></path>
<path fill="#3d404b" style="fill: var(--color8, #3d404b)" d="M21.968 14.226l-2.646 1.676-1.584-2.417 2.709-1.675 1.522 2.416z"></path>
<path fill="#3d404b" style="fill: var(--color8, #3d404b)" d="M23.724 16.847l-2.646 1.677-1.584-2.418 2.709-1.674 1.522 2.414z"></path>
<path fill="#3d404b" style="fill: var(--color8, #3d404b)" d="M20.795 18.67l-2.646 1.676-1.584-2.417 2.709-1.675 1.522 2.416z"></path>
</symbol>


<symbol id="icon-house-11" viewBox="0 0 32 32">
<path fill="#e1e4eb" style="fill: var(--color1, #e1e4eb)" d="M16.147 32l14.435-8.321v-10.438l-14.435 5.637v13.122z"></path>
<path fill="#e52f42" style="fill: var(--color2, #e52f42)" d="M8.649 8.291l14.435-8.291 8.915 13.957-14.376 8.35-8.974-14.017z"></path>
<path fill="#c3c9d6" style="fill: var(--color3, #c3c9d6)" d="M1.298 11.422v11.869l14.849 8.709v-11.512l-7.498-11.869-7.351 2.803z"></path>
<path fill="#a8acb6" style="fill: var(--color4, #a8acb6)" d="M1.191 11.959l0.064 1 7.232-2.803 7.927 12.152 0.649-0.359-8.412-13.062-7.459 3.072z"></path>
<path fill="#c3c9d6" style="fill: var(--color3, #c3c9d6)" d="M0 11.839l0.382 0.797 7.908-3.252 8.682 13.35 0.652-0.426-8.974-14.017z"></path>
<path fill="#b2202f" style="fill: var(--color5, #b2202f)" d="M23.085 0l-9.092 3.579-13.992 8.26 8.649-3.549 14.435-8.291z"></path>
<path fill="#aeb1b9" style="fill: var(--color6, #aeb1b9)" d="M6.996 23.605l-3.837-2.208v-4.846l3.837 2.192v4.861z"></path>
<path fill="#aeb1b9" style="fill: var(--color6, #aeb1b9)" d="M13.294 30.508l-3.837-2.535v-7.744l3.837 2.078v8.201z"></path>
<path fill="#aeb1b9" style="fill: var(--color6, #aeb1b9)" d="M19.661 22.57l2.213-1.228v4.899l-2.213 1.279v-4.95z"></path>
<path fill="#aeb1b9" style="fill: var(--color6, #aeb1b9)" d="M22.185 21.171l2.332-1.294v4.838l-2.332 1.347v-4.891z"></path>
<path fill="#aeb1b9" style="fill: var(--color6, #aeb1b9)" d="M27.351 18.306v4.771l-2.524 1.459v-4.831l2.524-1.399z"></path>
<path fill="#c2c2c2" style="fill: var(--color9, #c2c2c2)" d="M26.213 7.368l-12.093 7.116-3.621-5.706 12.097-7.083 3.617 5.673z"></path>
<path fill="#c2c2c2" style="fill: var(--color9, #c2c2c2)" d="M30.121 13.458l-12.104 7.258-3.621-5.706 12.159-7.119 3.567 5.567z"></path>
<path fill="#3d404b" style="fill: var(--color8, #3d404b)" d="M15.133 9.732l-2.686 1.611-1.525-2.456 2.748-1.606 1.463 2.452z"></path>
<path fill="#3d404b" style="fill: var(--color8, #3d404b)" d="M18.106 8.002l-2.687 1.611-1.525-2.455 2.748-1.607 1.464 2.452z"></path>
<path fill="#3d404b" style="fill: var(--color8, #3d404b)" d="M19.797 10.667l-2.686 1.611-1.525-2.456 2.748-1.606 1.463 2.452z"></path>
<path fill="#3d404b" style="fill: var(--color8, #3d404b)" d="M21.058 6.34l-2.687 1.611-1.525-2.455 2.749-1.607 1.463 2.452z"></path>
<path fill="#3d404b" style="fill: var(--color8, #3d404b)" d="M24.010 4.588l-2.686 1.611-1.526-2.455 2.749-1.607 1.463 2.452z"></path>
<path fill="#3d404b" style="fill: var(--color8, #3d404b)" d="M22.707 8.944l-2.675 1.629-1.541-2.446 2.738-1.626 1.479 2.442z"></path>
<path fill="#3d404b" style="fill: var(--color8, #3d404b)" d="M25.672 7.214l-2.686 1.611-1.525-2.456 2.748-1.606 1.463 2.452z"></path>
<path fill="#3d404b" style="fill: var(--color8, #3d404b)" d="M16.826 12.416l-2.686 1.61-1.525-2.455 2.748-1.607 1.463 2.453z"></path>
<path fill="#3d404b" style="fill: var(--color8, #3d404b)" d="M19.039 16.028l-2.646 1.677-1.585-2.418 2.709-1.674 1.523 2.414z"></path>
<path fill="#3d404b" style="fill: var(--color8, #3d404b)" d="M21.968 14.226l-2.646 1.676-1.584-2.417 2.709-1.675 1.522 2.416z"></path>
<path fill="#3d404b" style="fill: var(--color8, #3d404b)" d="M23.724 16.847l-2.646 1.677-1.584-2.418 2.709-1.674 1.522 2.414z"></path>
<path fill="#3d404b" style="fill: var(--color8, #3d404b)" d="M20.795 18.67l-2.646 1.676-1.584-2.417 2.709-1.675 1.522 2.416z"></path>
<path fill="#3d404b" style="fill: var(--color8, #3d404b)" d="M24.999 12.429l-2.672 1.635-1.548-2.44 2.734-1.634 1.486 2.439z"></path>
<path fill="#3d404b" style="fill: var(--color8, #3d404b)" d="M27.954 10.671l-2.672 1.635-1.548-2.44 2.734-1.634 1.486 2.439z"></path>
<path fill="#3d404b" style="fill: var(--color8, #3d404b)" d="M29.671 13.319l-2.671 1.635-1.548-2.44 2.733-1.634 1.486 2.439z"></path>
<path fill="#3d404b" style="fill: var(--color8, #3d404b)" d="M26.716 15.097l-2.671 1.635-1.548-2.44 2.733-1.634 1.486 2.439z"></path>
</symbol>


<symbol id="icon-house-8" viewBox="0 0 32 32">
<path fill="#e1e4eb" style="fill: var(--color1, #e1e4eb)" d="M16.147 32l14.435-8.321v-10.438l-14.435 5.637v13.122z"></path>
<path fill="#e52f42" style="fill: var(--color2, #e52f42)" d="M8.649 8.291l14.435-8.291 8.915 13.957-14.376 8.35-8.974-14.017z"></path>
<path fill="#c3c9d6" style="fill: var(--color3, #c3c9d6)" d="M1.28 11.376v11.931l14.867 8.694v-11.512l-7.498-11.869-7.369 2.757z"></path>
<path fill="#a8acb6" style="fill: var(--color4, #a8acb6)" d="M1.28 11.931v1.017l6.857-2.775 7.954 11.838v-1.11l-7.442-12.015-7.369 3.044z"></path>
<path fill="#c3c9d6" style="fill: var(--color3, #c3c9d6)" d="M0 11.839l0.382 0.797 7.908-3.252 8.682 13.35 0.652-0.426-8.974-14.017z"></path>
<path fill="#b2202f" style="fill: var(--color5, #b2202f)" d="M23.085 0l-9.092 3.579-13.992 8.26 8.649-3.549 14.435-8.291z"></path>
<path fill="#aeb1b9" style="fill: var(--color6, #aeb1b9)" d="M6.996 23.605l-3.837-2.208v-4.846l3.837 2.192v4.861z"></path>
<path fill="#aeb1b9" style="fill: var(--color6, #aeb1b9)" d="M13.294 30.335l-3.837-2.262v-7.844l3.837 2.078v8.028z"></path>
<path fill="#aeb1b9" style="fill: var(--color6, #aeb1b9)" d="M19.661 22.57l2.213-1.228v4.899l-2.213 1.279v-4.95z"></path>
<path fill="#aeb1b9" style="fill: var(--color6, #aeb1b9)" d="M22.185 21.171l2.332-1.294v4.838l-2.332 1.347v-4.891z"></path>
<path fill="#aeb1b9" style="fill: var(--color6, #aeb1b9)" d="M27.351 18.306v4.771l-2.524 1.459v-4.831l2.524-1.399z"></path>
<path fill="#c2c2c2" style="fill: var(--color9, #c2c2c2)" d="M20.248 10.878l-6.128 3.606-3.621-5.706 6.156-3.605 3.593 5.705z"></path>
<path fill="#3d404b" style="fill: var(--color8, #3d404b)" d="M15.133 9.732l-2.686 1.611-1.525-2.456 2.748-1.606 1.463 2.452z"></path>
<path fill="#3d404b" style="fill: var(--color8, #3d404b)" d="M18.106 8.002l-2.687 1.611-1.525-2.455 2.748-1.607 1.464 2.452z"></path>
<path fill="#3d404b" style="fill: var(--color8, #3d404b)" d="M19.797 10.667l-2.686 1.611-1.525-2.456 2.748-1.606 1.463 2.452z"></path>
<path fill="#3d404b" style="fill: var(--color8, #3d404b)" d="M16.826 12.416l-2.686 1.61-1.525-2.455 2.748-1.607 1.463 2.453z"></path>
</symbol>

<symbol id="icon-line" viewBox="0 0 816 32"><path fill="none" stroke="#cbcbd4" stroke-linecap="round" stroke-width="16" d="M8 16h800" style="stroke:var(--color10, #cbcbd4)"/></symbol>

</defs></svg>